<?xml version="1.0" encoding="utf-8" standalone="no"?>
<!DOCTYPE svg PUBLIC "-//W3C//DTD SVG 1.1//EN"
  "http://www.w3.org/Graphics/SVG/1.1/DTD/svg11.dtd">
<svg xmlns:xlink="http://www.w3.org/1999/xlink" width="1160.39952pt" height="440.39952pt" viewBox="0 0 1160.39952 440.39952" xmlns="http://www.w3.org/2000/svg" version="1.1">
 <metadata>
  <rdf:RDF xmlns:dc="http://purl.org/dc/elements/1.1/" xmlns:cc="http://creativecommons.org/ns#" xmlns:rdf="http://www.w3.org/1999/02/22-rdf-syntax-ns#">
   <cc:Work>
    <dc:type rdf:resource="http://purl.org/dc/dcmitype/StillImage"/>
    <dc:date>2026-06-04T08:47:40.172081</dc:date>
    <dc:format>image/svg+xml</dc:format>
    <dc:creator>
     <cc:Agent>
      <dc:title>Matplotlib v3.10.0, https://matplotlib.org/</dc:title>
     </cc:Agent>
    </dc:creator>
   </cc:Work>
  </rdf:RDF>
 </metadata>
 <defs>
  <style type="text/css">*{stroke-linejoin: round; stroke-linecap: butt}</style>
 </defs>
 <g id="figure_1">
  <g id="patch_1">
   <path d="M 0 440.39952 
L 1160.39952 440.39952 
L 1160.39952 0 
L 0 0 
z
" style="fill: #ffffff"/>
  </g>
  <g id="axes_1">
   <g id="patch_2">
    <path d="M 85.948437 369.244051 
L 1153.19952 369.244051 
L 1153.19952 7.2 
L 85.948437 7.2 
z
" style="fill: #ffffff"/>
   </g>
   <g id="matplotlib.axis_1">
    <g id="xtick_1">
     <g id="line2d_1">
      <defs>
       <path id="mc3f8754b67" d="M 0 0 
L 0 -12 
" style="stroke: #000000; stroke-width: 3"/>
      </defs>
      <g>
       <use xlink:href="#mc3f8754b67" x="134.45985" y="369.244051" style="stroke: #000000; stroke-width: 3"/>
      </g>
     </g>
     <g id="text_1">
      <!-- 0 -->
      <g transform="translate(128.20985 396.603426) scale(0.25 -0.25)">
       <defs>
        <path id="TimesNewRomanPSMT-30" d="M 231 2094 
Q 231 2819 450 3342 
Q 669 3866 1031 4122 
Q 1313 4325 1613 4325 
Q 2100 4325 2488 3828 
Q 2972 3213 2972 2159 
Q 2972 1422 2759 906 
Q 2547 391 2217 158 
Q 1888 -75 1581 -75 
Q 975 -75 572 641 
Q 231 1244 231 2094 
z
M 844 2016 
Q 844 1141 1059 588 
Q 1238 122 1591 122 
Q 1759 122 1940 273 
Q 2122 425 2216 781 
Q 2359 1319 2359 2297 
Q 2359 3022 2209 3506 
Q 2097 3866 1919 4016 
Q 1791 4119 1609 4119 
Q 1397 4119 1231 3928 
Q 1006 3669 925 3112 
Q 844 2556 844 2016 
z
" transform="scale(0.015625)"/>
       </defs>
       <use xlink:href="#TimesNewRomanPSMT-30"/>
      </g>
     </g>
    </g>
    <g id="xtick_2">
     <g id="line2d_2">
      <g>
       <use xlink:href="#mc3f8754b67" x="329.320077" y="369.244051" style="stroke: #000000; stroke-width: 3"/>
      </g>
     </g>
     <g id="text_2">
      <!-- 500 -->
      <g transform="translate(310.570077 396.603426) scale(0.25 -0.25)">
       <defs>
        <path id="TimesNewRomanPSMT-35" d="M 2778 4238 
L 2534 3706 
L 1259 3706 
L 981 3138 
Q 1809 3016 2294 2522 
Q 2709 2097 2709 1522 
Q 2709 1188 2573 903 
Q 2438 619 2231 419 
Q 2025 219 1772 97 
Q 1413 -75 1034 -75 
Q 653 -75 479 54 
Q 306 184 306 341 
Q 306 428 378 495 
Q 450 563 559 563 
Q 641 563 702 538 
Q 763 513 909 409 
Q 1144 247 1384 247 
Q 1750 247 2026 523 
Q 2303 800 2303 1197 
Q 2303 1581 2056 1914 
Q 1809 2247 1375 2428 
Q 1034 2569 447 2591 
L 1259 4238 
L 2778 4238 
z
" transform="scale(0.015625)"/>
       </defs>
       <use xlink:href="#TimesNewRomanPSMT-35"/>
       <use xlink:href="#TimesNewRomanPSMT-30" transform="translate(50 0)"/>
       <use xlink:href="#TimesNewRomanPSMT-30" transform="translate(100 0)"/>
      </g>
     </g>
    </g>
    <g id="xtick_3">
     <g id="line2d_3">
      <g>
       <use xlink:href="#mc3f8754b67" x="524.180303" y="369.244051" style="stroke: #000000; stroke-width: 3"/>
      </g>
     </g>
     <g id="text_3">
      <!-- 1000 -->
      <g transform="translate(499.180303 396.603426) scale(0.25 -0.25)">
       <defs>
        <path id="TimesNewRomanPSMT-31" d="M 750 3822 
L 1781 4325 
L 1884 4325 
L 1884 747 
Q 1884 391 1914 303 
Q 1944 216 2037 169 
Q 2131 122 2419 116 
L 2419 0 
L 825 0 
L 825 116 
Q 1125 122 1212 167 
Q 1300 213 1334 289 
Q 1369 366 1369 747 
L 1369 3034 
Q 1369 3497 1338 3628 
Q 1316 3728 1258 3775 
Q 1200 3822 1119 3822 
Q 1003 3822 797 3725 
L 750 3822 
z
" transform="scale(0.015625)"/>
       </defs>
       <use xlink:href="#TimesNewRomanPSMT-31"/>
       <use xlink:href="#TimesNewRomanPSMT-30" transform="translate(50 0)"/>
       <use xlink:href="#TimesNewRomanPSMT-30" transform="translate(100 0)"/>
       <use xlink:href="#TimesNewRomanPSMT-30" transform="translate(150 0)"/>
      </g>
     </g>
    </g>
    <g id="xtick_4">
     <g id="line2d_4">
      <g>
       <use xlink:href="#mc3f8754b67" x="719.04053" y="369.244051" style="stroke: #000000; stroke-width: 3"/>
      </g>
     </g>
     <g id="text_4">
      <!-- 1500 -->
      <g transform="translate(694.04053 396.603426) scale(0.25 -0.25)">
       <use xlink:href="#TimesNewRomanPSMT-31"/>
       <use xlink:href="#TimesNewRomanPSMT-35" transform="translate(50 0)"/>
       <use xlink:href="#TimesNewRomanPSMT-30" transform="translate(100 0)"/>
       <use xlink:href="#TimesNewRomanPSMT-30" transform="translate(150 0)"/>
      </g>
     </g>
    </g>
    <g id="xtick_5">
     <g id="line2d_5">
      <g>
       <use xlink:href="#mc3f8754b67" x="913.900756" y="369.244051" style="stroke: #000000; stroke-width: 3"/>
      </g>
     </g>
     <g id="text_5">
      <!-- 2000 -->
      <g transform="translate(888.900756 396.603426) scale(0.25 -0.25)">
       <defs>
        <path id="TimesNewRomanPSMT-32" d="M 2934 816 
L 2638 0 
L 138 0 
L 138 116 
Q 1241 1122 1691 1759 
Q 2141 2397 2141 2925 
Q 2141 3328 1894 3587 
Q 1647 3847 1303 3847 
Q 991 3847 742 3664 
Q 494 3481 375 3128 
L 259 3128 
Q 338 3706 661 4015 
Q 984 4325 1469 4325 
Q 1984 4325 2329 3994 
Q 2675 3663 2675 3213 
Q 2675 2891 2525 2569 
Q 2294 2063 1775 1497 
Q 997 647 803 472 
L 1909 472 
Q 2247 472 2383 497 
Q 2519 522 2628 598 
Q 2738 675 2819 816 
L 2934 816 
z
" transform="scale(0.015625)"/>
       </defs>
       <use xlink:href="#TimesNewRomanPSMT-32"/>
       <use xlink:href="#TimesNewRomanPSMT-30" transform="translate(50 0)"/>
       <use xlink:href="#TimesNewRomanPSMT-30" transform="translate(100 0)"/>
       <use xlink:href="#TimesNewRomanPSMT-30" transform="translate(150 0)"/>
      </g>
     </g>
    </g>
    <g id="xtick_6">
     <g id="line2d_6">
      <g>
       <use xlink:href="#mc3f8754b67" x="1108.760982" y="369.244051" style="stroke: #000000; stroke-width: 3"/>
      </g>
     </g>
     <g id="text_6">
      <!-- 2500 -->
      <g transform="translate(1083.760982 396.603426) scale(0.25 -0.25)">
       <use xlink:href="#TimesNewRomanPSMT-32"/>
       <use xlink:href="#TimesNewRomanPSMT-35" transform="translate(50 0)"/>
       <use xlink:href="#TimesNewRomanPSMT-30" transform="translate(100 0)"/>
       <use xlink:href="#TimesNewRomanPSMT-30" transform="translate(150 0)"/>
      </g>
     </g>
    </g>
    <g id="text_7">
     <!-- Time (s) -->
     <g transform="translate(568.866947 426.782332) scale(0.3 -0.3)">
      <defs>
       <path id="TimesNewRomanPSMT-54" d="M 3703 4238 
L 3750 3244 
L 3631 3244 
Q 3597 3506 3538 3619 
Q 3441 3800 3280 3886 
Q 3119 3972 2856 3972 
L 2259 3972 
L 2259 734 
Q 2259 344 2344 247 
Q 2463 116 2709 116 
L 2856 116 
L 2856 0 
L 1059 0 
L 1059 116 
L 1209 116 
Q 1478 116 1591 278 
Q 1659 378 1659 734 
L 1659 3972 
L 1150 3972 
Q 853 3972 728 3928 
Q 566 3869 450 3700 
Q 334 3531 313 3244 
L 194 3244 
L 244 4238 
L 3703 4238 
z
" transform="scale(0.015625)"/>
       <path id="TimesNewRomanPSMT-69" d="M 928 4444 
Q 1059 4444 1151 4351 
Q 1244 4259 1244 4128 
Q 1244 3997 1151 3903 
Q 1059 3809 928 3809 
Q 797 3809 703 3903 
Q 609 3997 609 4128 
Q 609 4259 701 4351 
Q 794 4444 928 4444 
z
M 1188 2947 
L 1188 647 
Q 1188 378 1227 289 
Q 1266 200 1342 156 
Q 1419 113 1622 113 
L 1622 0 
L 231 0 
L 231 113 
Q 441 113 512 153 
Q 584 194 626 287 
Q 669 381 669 647 
L 669 1750 
Q 669 2216 641 2353 
Q 619 2453 572 2492 
Q 525 2531 444 2531 
Q 356 2531 231 2484 
L 188 2597 
L 1050 2947 
L 1188 2947 
z
" transform="scale(0.015625)"/>
       <path id="TimesNewRomanPSMT-6d" d="M 1050 2338 
Q 1363 2650 1419 2697 
Q 1559 2816 1721 2881 
Q 1884 2947 2044 2947 
Q 2313 2947 2506 2790 
Q 2700 2634 2766 2338 
Q 3088 2713 3309 2830 
Q 3531 2947 3766 2947 
Q 3994 2947 4170 2830 
Q 4347 2713 4450 2447 
Q 4519 2266 4519 1878 
L 4519 647 
Q 4519 378 4559 278 
Q 4591 209 4675 161 
Q 4759 113 4950 113 
L 4950 0 
L 3538 0 
L 3538 113 
L 3597 113 
Q 3781 113 3884 184 
Q 3956 234 3988 344 
Q 4000 397 4000 647 
L 4000 1878 
Q 4000 2228 3916 2372 
Q 3794 2572 3525 2572 
Q 3359 2572 3192 2489 
Q 3025 2406 2788 2181 
L 2781 2147 
L 2788 2013 
L 2788 647 
Q 2788 353 2820 281 
Q 2853 209 2943 161 
Q 3034 113 3253 113 
L 3253 0 
L 1806 0 
L 1806 113 
Q 2044 113 2133 169 
Q 2222 225 2256 338 
Q 2272 391 2272 647 
L 2272 1878 
Q 2272 2228 2169 2381 
Q 2031 2581 1784 2581 
Q 1616 2581 1450 2491 
Q 1191 2353 1050 2181 
L 1050 647 
Q 1050 366 1089 281 
Q 1128 197 1204 155 
Q 1281 113 1516 113 
L 1516 0 
L 100 0 
L 100 113 
Q 297 113 375 155 
Q 453 197 493 289 
Q 534 381 534 647 
L 534 1741 
Q 534 2213 506 2350 
Q 484 2453 437 2492 
Q 391 2531 309 2531 
Q 222 2531 100 2484 
L 53 2597 
L 916 2947 
L 1050 2947 
L 1050 2338 
z
" transform="scale(0.015625)"/>
       <path id="TimesNewRomanPSMT-65" d="M 681 1784 
Q 678 1147 991 784 
Q 1303 422 1725 422 
Q 2006 422 2214 576 
Q 2422 731 2563 1106 
L 2659 1044 
Q 2594 616 2278 264 
Q 1963 -88 1488 -88 
Q 972 -88 605 314 
Q 238 716 238 1394 
Q 238 2128 614 2539 
Q 991 2950 1559 2950 
Q 2041 2950 2350 2633 
Q 2659 2316 2659 1784 
L 681 1784 
z
M 681 1966 
L 2006 1966 
Q 1991 2241 1941 2353 
Q 1863 2528 1708 2628 
Q 1553 2728 1384 2728 
Q 1125 2728 920 2526 
Q 716 2325 681 1966 
z
" transform="scale(0.015625)"/>
       <path id="TimesNewRomanPSMT-20" transform="scale(0.015625)"/>
       <path id="TimesNewRomanPSMT-28" d="M 1988 -1253 
L 1988 -1369 
Q 1516 -1131 1200 -813 
Q 750 -359 506 256 
Q 263 872 263 1534 
Q 263 2503 741 3301 
Q 1219 4100 1988 4444 
L 1988 4313 
Q 1603 4100 1356 3731 
Q 1109 3363 987 2797 
Q 866 2231 866 1616 
Q 866 947 969 400 
Q 1050 -31 1165 -292 
Q 1281 -553 1476 -793 
Q 1672 -1034 1988 -1253 
z
" transform="scale(0.015625)"/>
       <path id="TimesNewRomanPSMT-73" d="M 2050 2947 
L 2050 1972 
L 1947 1972 
Q 1828 2431 1642 2597 
Q 1456 2763 1169 2763 
Q 950 2763 815 2647 
Q 681 2531 681 2391 
Q 681 2216 781 2091 
Q 878 1963 1175 1819 
L 1631 1597 
Q 2266 1288 2266 781 
Q 2266 391 1970 151 
Q 1675 -88 1309 -88 
Q 1047 -88 709 6 
Q 606 38 541 38 
Q 469 38 428 -44 
L 325 -44 
L 325 978 
L 428 978 
Q 516 541 762 319 
Q 1009 97 1316 97 
Q 1531 97 1667 223 
Q 1803 350 1803 528 
Q 1803 744 1651 891 
Q 1500 1038 1047 1263 
Q 594 1488 453 1669 
Q 313 1847 313 2119 
Q 313 2472 555 2709 
Q 797 2947 1181 2947 
Q 1350 2947 1591 2875 
Q 1750 2828 1803 2828 
Q 1853 2828 1881 2850 
Q 1909 2872 1947 2947 
L 2050 2947 
z
" transform="scale(0.015625)"/>
       <path id="TimesNewRomanPSMT-29" d="M 144 4313 
L 144 4444 
Q 619 4209 934 3891 
Q 1381 3434 1625 2820 
Q 1869 2206 1869 1541 
Q 1869 572 1392 -226 
Q 916 -1025 144 -1369 
L 144 -1253 
Q 528 -1038 776 -670 
Q 1025 -303 1145 264 
Q 1266 831 1266 1447 
Q 1266 2113 1163 2663 
Q 1084 3094 967 3353 
Q 850 3613 656 3853 
Q 463 4094 144 4313 
z
" transform="scale(0.015625)"/>
      </defs>
      <use xlink:href="#TimesNewRomanPSMT-54"/>
      <use xlink:href="#TimesNewRomanPSMT-69" transform="translate(57.583984 0)"/>
      <use xlink:href="#TimesNewRomanPSMT-6d" transform="translate(85.367188 0)"/>
      <use xlink:href="#TimesNewRomanPSMT-65" transform="translate(163.150391 0)"/>
      <use xlink:href="#TimesNewRomanPSMT-20" transform="translate(207.535156 0)"/>
      <use xlink:href="#TimesNewRomanPSMT-28" transform="translate(232.535156 0)"/>
      <use xlink:href="#TimesNewRomanPSMT-73" transform="translate(265.835938 0)"/>
      <use xlink:href="#TimesNewRomanPSMT-29" transform="translate(304.751953 0)"/>
     </g>
    </g>
   </g>
   <g id="matplotlib.axis_2">
    <g id="ytick_1">
     <g id="line2d_7">
      <defs>
       <path id="m5f7df359fa" d="M 0 0 
L 12 0 
" style="stroke: #000000; stroke-width: 3"/>
      </defs>
      <g>
       <use xlink:href="#m5f7df359fa" x="85.948437" y="360.61473" style="stroke: #000000; stroke-width: 3"/>
      </g>
     </g>
     <g id="text_8">
      <!-- 0 -->
      <g transform="translate(63.448437 369.294418) scale(0.25 -0.25)">
       <use xlink:href="#TimesNewRomanPSMT-30"/>
      </g>
     </g>
    </g>
    <g id="ytick_2">
     <g id="line2d_8">
      <g>
       <use xlink:href="#m5f7df359fa" x="85.948437" y="308.775709" style="stroke: #000000; stroke-width: 3"/>
      </g>
     </g>
     <g id="text_9">
      <!-- 20 -->
      <g transform="translate(50.948437 317.455397) scale(0.25 -0.25)">
       <use xlink:href="#TimesNewRomanPSMT-32"/>
       <use xlink:href="#TimesNewRomanPSMT-30" transform="translate(50 0)"/>
      </g>
     </g>
    </g>
    <g id="ytick_3">
     <g id="line2d_9">
      <g>
       <use xlink:href="#m5f7df359fa" x="85.948437" y="256.936689" style="stroke: #000000; stroke-width: 3"/>
      </g>
     </g>
     <g id="text_10">
      <!-- 40 -->
      <g transform="translate(50.948437 265.616376) scale(0.25 -0.25)">
       <defs>
        <path id="TimesNewRomanPSMT-34" d="M 2978 1563 
L 2978 1119 
L 2409 1119 
L 2409 0 
L 1894 0 
L 1894 1119 
L 100 1119 
L 100 1519 
L 2066 4325 
L 2409 4325 
L 2409 1563 
L 2978 1563 
z
M 1894 1563 
L 1894 3666 
L 406 1563 
L 1894 1563 
z
" transform="scale(0.015625)"/>
       </defs>
       <use xlink:href="#TimesNewRomanPSMT-34"/>
       <use xlink:href="#TimesNewRomanPSMT-30" transform="translate(50 0)"/>
      </g>
     </g>
    </g>
    <g id="ytick_4">
     <g id="line2d_10">
      <g>
       <use xlink:href="#m5f7df359fa" x="85.948437" y="205.097668" style="stroke: #000000; stroke-width: 3"/>
      </g>
     </g>
     <g id="text_11">
      <!-- 60 -->
      <g transform="translate(50.948437 213.777356) scale(0.25 -0.25)">
       <defs>
        <path id="TimesNewRomanPSMT-36" d="M 2869 4325 
L 2869 4209 
Q 2456 4169 2195 4045 
Q 1934 3922 1679 3669 
Q 1425 3416 1258 3105 
Q 1091 2794 978 2366 
Q 1428 2675 1881 2675 
Q 2316 2675 2634 2325 
Q 2953 1975 2953 1425 
Q 2953 894 2631 456 
Q 2244 -75 1606 -75 
Q 1172 -75 869 213 
Q 275 772 275 1663 
Q 275 2231 503 2743 
Q 731 3256 1154 3653 
Q 1578 4050 1965 4187 
Q 2353 4325 2688 4325 
L 2869 4325 
z
M 925 2138 
Q 869 1716 869 1456 
Q 869 1156 980 804 
Q 1091 453 1309 247 
Q 1469 100 1697 100 
Q 1969 100 2183 356 
Q 2397 613 2397 1088 
Q 2397 1622 2184 2012 
Q 1972 2403 1581 2403 
Q 1463 2403 1327 2353 
Q 1191 2303 925 2138 
z
" transform="scale(0.015625)"/>
       </defs>
       <use xlink:href="#TimesNewRomanPSMT-36"/>
       <use xlink:href="#TimesNewRomanPSMT-30" transform="translate(50 0)"/>
      </g>
     </g>
    </g>
    <g id="ytick_5">
     <g id="line2d_11">
      <g>
       <use xlink:href="#m5f7df359fa" x="85.948437" y="153.258647" style="stroke: #000000; stroke-width: 3"/>
      </g>
     </g>
     <g id="text_12">
      <!-- 80 -->
      <g transform="translate(50.948437 161.938335) scale(0.25 -0.25)">
       <defs>
        <path id="TimesNewRomanPSMT-38" d="M 1228 2134 
Q 725 2547 579 2797 
Q 434 3047 434 3316 
Q 434 3728 753 4026 
Q 1072 4325 1600 4325 
Q 2113 4325 2425 4047 
Q 2738 3769 2738 3413 
Q 2738 3175 2569 2928 
Q 2400 2681 1866 2347 
Q 2416 1922 2594 1678 
Q 2831 1359 2831 1006 
Q 2831 559 2490 242 
Q 2150 -75 1597 -75 
Q 994 -75 656 303 
Q 388 606 388 966 
Q 388 1247 577 1523 
Q 766 1800 1228 2134 
z
M 1719 2469 
Q 2094 2806 2194 3001 
Q 2294 3197 2294 3444 
Q 2294 3772 2109 3958 
Q 1925 4144 1606 4144 
Q 1288 4144 1088 3959 
Q 888 3775 888 3528 
Q 888 3366 970 3203 
Q 1053 3041 1206 2894 
L 1719 2469 
z
M 1375 2016 
Q 1116 1797 991 1539 
Q 866 1281 866 981 
Q 866 578 1086 336 
Q 1306 94 1647 94 
Q 1984 94 2187 284 
Q 2391 475 2391 747 
Q 2391 972 2272 1150 
Q 2050 1481 1375 2016 
z
" transform="scale(0.015625)"/>
       </defs>
       <use xlink:href="#TimesNewRomanPSMT-38"/>
       <use xlink:href="#TimesNewRomanPSMT-30" transform="translate(50 0)"/>
      </g>
     </g>
    </g>
    <g id="ytick_6">
     <g id="line2d_12">
      <g>
       <use xlink:href="#m5f7df359fa" x="85.948437" y="101.419627" style="stroke: #000000; stroke-width: 3"/>
      </g>
     </g>
     <g id="text_13">
      <!-- 100 -->
      <g transform="translate(38.448437 110.099314) scale(0.25 -0.25)">
       <use xlink:href="#TimesNewRomanPSMT-31"/>
       <use xlink:href="#TimesNewRomanPSMT-30" transform="translate(50 0)"/>
       <use xlink:href="#TimesNewRomanPSMT-30" transform="translate(100 0)"/>
      </g>
     </g>
    </g>
    <g id="ytick_7">
     <g id="line2d_13">
      <g>
       <use xlink:href="#m5f7df359fa" x="85.948437" y="49.580606" style="stroke: #000000; stroke-width: 3"/>
      </g>
     </g>
     <g id="text_14">
      <!-- 120 -->
      <g transform="translate(38.448437 58.260293) scale(0.25 -0.25)">
       <use xlink:href="#TimesNewRomanPSMT-31"/>
       <use xlink:href="#TimesNewRomanPSMT-32" transform="translate(50 0)"/>
       <use xlink:href="#TimesNewRomanPSMT-30" transform="translate(100 0)"/>
      </g>
     </g>
    </g>
    <g id="text_15">
     <!-- Stress (MPa) -->
     <g transform="translate(28.03125 266.137651) rotate(-90) scale(0.3 -0.3)">
      <defs>
       <path id="TimesNewRomanPSMT-53" d="M 2934 4334 
L 2934 2869 
L 2819 2869 
Q 2763 3291 2617 3541 
Q 2472 3791 2203 3937 
Q 1934 4084 1647 4084 
Q 1322 4084 1109 3886 
Q 897 3688 897 3434 
Q 897 3241 1031 3081 
Q 1225 2847 1953 2456 
Q 2547 2138 2764 1967 
Q 2981 1797 3098 1565 
Q 3216 1334 3216 1081 
Q 3216 600 2842 251 
Q 2469 -97 1881 -97 
Q 1697 -97 1534 -69 
Q 1438 -53 1133 45 
Q 828 144 747 144 
Q 669 144 623 97 
Q 578 50 556 -97 
L 441 -97 
L 441 1356 
L 556 1356 
Q 638 900 775 673 
Q 913 447 1195 297 
Q 1478 147 1816 147 
Q 2206 147 2432 353 
Q 2659 559 2659 841 
Q 2659 997 2573 1156 
Q 2488 1316 2306 1453 
Q 2184 1547 1640 1851 
Q 1097 2156 867 2337 
Q 638 2519 519 2737 
Q 400 2956 400 3219 
Q 400 3675 750 4004 
Q 1100 4334 1641 4334 
Q 1978 4334 2356 4169 
Q 2531 4091 2603 4091 
Q 2684 4091 2736 4139 
Q 2788 4188 2819 4334 
L 2934 4334 
z
" transform="scale(0.015625)"/>
       <path id="TimesNewRomanPSMT-74" d="M 1031 3803 
L 1031 2863 
L 1700 2863 
L 1700 2644 
L 1031 2644 
L 1031 788 
Q 1031 509 1111 412 
Q 1191 316 1316 316 
Q 1419 316 1516 380 
Q 1613 444 1666 569 
L 1788 569 
Q 1678 263 1478 108 
Q 1278 -47 1066 -47 
Q 922 -47 784 33 
Q 647 113 581 261 
Q 516 409 516 719 
L 516 2644 
L 63 2644 
L 63 2747 
Q 234 2816 414 2980 
Q 594 3144 734 3369 
Q 806 3488 934 3803 
L 1031 3803 
z
" transform="scale(0.015625)"/>
       <path id="TimesNewRomanPSMT-72" d="M 1038 2947 
L 1038 2303 
Q 1397 2947 1775 2947 
Q 1947 2947 2059 2842 
Q 2172 2738 2172 2600 
Q 2172 2478 2090 2393 
Q 2009 2309 1897 2309 
Q 1788 2309 1652 2417 
Q 1516 2525 1450 2525 
Q 1394 2525 1328 2463 
Q 1188 2334 1038 2041 
L 1038 669 
Q 1038 431 1097 309 
Q 1138 225 1241 169 
Q 1344 113 1538 113 
L 1538 0 
L 72 0 
L 72 113 
Q 291 113 397 181 
Q 475 231 506 341 
Q 522 394 522 644 
L 522 1753 
Q 522 2253 501 2348 
Q 481 2444 426 2487 
Q 372 2531 291 2531 
Q 194 2531 72 2484 
L 41 2597 
L 906 2947 
L 1038 2947 
z
" transform="scale(0.015625)"/>
       <path id="TimesNewRomanPSMT-4d" d="M 2619 0 
L 981 3566 
L 981 734 
Q 981 344 1066 247 
Q 1181 116 1431 116 
L 1581 116 
L 1581 0 
L 106 0 
L 106 116 
L 256 116 
Q 525 116 638 278 
Q 706 378 706 734 
L 706 3503 
Q 706 3784 644 3909 
Q 600 4000 483 4061 
Q 366 4122 106 4122 
L 106 4238 
L 1306 4238 
L 2844 922 
L 4356 4238 
L 5556 4238 
L 5556 4122 
L 5409 4122 
Q 5138 4122 5025 3959 
Q 4956 3859 4956 3503 
L 4956 734 
Q 4956 344 5044 247 
Q 5159 116 5409 116 
L 5556 116 
L 5556 0 
L 3756 0 
L 3756 116 
L 3906 116 
Q 4178 116 4288 278 
Q 4356 378 4356 734 
L 4356 3566 
L 2722 0 
L 2619 0 
z
" transform="scale(0.015625)"/>
       <path id="TimesNewRomanPSMT-50" d="M 1313 1984 
L 1313 750 
Q 1313 350 1400 253 
Q 1519 116 1759 116 
L 1922 116 
L 1922 0 
L 106 0 
L 106 116 
L 266 116 
Q 534 116 650 291 
Q 713 388 713 750 
L 713 3488 
Q 713 3888 628 3984 
Q 506 4122 266 4122 
L 106 4122 
L 106 4238 
L 1659 4238 
Q 2228 4238 2556 4120 
Q 2884 4003 3109 3725 
Q 3334 3447 3334 3066 
Q 3334 2547 2992 2222 
Q 2650 1897 2025 1897 
Q 1872 1897 1694 1919 
Q 1516 1941 1313 1984 
z
M 1313 2163 
Q 1478 2131 1606 2115 
Q 1734 2100 1825 2100 
Q 2150 2100 2386 2351 
Q 2622 2603 2622 3003 
Q 2622 3278 2509 3514 
Q 2397 3750 2190 3867 
Q 1984 3984 1722 3984 
Q 1563 3984 1313 3925 
L 1313 2163 
z
" transform="scale(0.015625)"/>
       <path id="TimesNewRomanPSMT-61" d="M 1822 413 
Q 1381 72 1269 19 
Q 1100 -59 909 -59 
Q 613 -59 420 144 
Q 228 347 228 678 
Q 228 888 322 1041 
Q 450 1253 767 1440 
Q 1084 1628 1822 1897 
L 1822 2009 
Q 1822 2438 1686 2597 
Q 1550 2756 1291 2756 
Q 1094 2756 978 2650 
Q 859 2544 859 2406 
L 866 2225 
Q 866 2081 792 2003 
Q 719 1925 600 1925 
Q 484 1925 411 2006 
Q 338 2088 338 2228 
Q 338 2497 613 2722 
Q 888 2947 1384 2947 
Q 1766 2947 2009 2819 
Q 2194 2722 2281 2516 
Q 2338 2381 2338 1966 
L 2338 994 
Q 2338 584 2353 492 
Q 2369 400 2405 369 
Q 2441 338 2488 338 
Q 2538 338 2575 359 
Q 2641 400 2828 588 
L 2828 413 
Q 2478 -56 2159 -56 
Q 2006 -56 1915 50 
Q 1825 156 1822 413 
z
M 1822 616 
L 1822 1706 
Q 1350 1519 1213 1441 
Q 966 1303 859 1153 
Q 753 1003 753 825 
Q 753 600 887 451 
Q 1022 303 1197 303 
Q 1434 303 1822 616 
z
" transform="scale(0.015625)"/>
      </defs>
      <use xlink:href="#TimesNewRomanPSMT-53"/>
      <use xlink:href="#TimesNewRomanPSMT-74" transform="translate(55.615234 0)"/>
      <use xlink:href="#TimesNewRomanPSMT-72" transform="translate(83.398438 0)"/>
      <use xlink:href="#TimesNewRomanPSMT-65" transform="translate(116.699219 0)"/>
      <use xlink:href="#TimesNewRomanPSMT-73" transform="translate(161.083984 0)"/>
      <use xlink:href="#TimesNewRomanPSMT-73" transform="translate(200 0)"/>
      <use xlink:href="#TimesNewRomanPSMT-20" transform="translate(238.916016 0)"/>
      <use xlink:href="#TimesNewRomanPSMT-28" transform="translate(263.916016 0)"/>
      <use xlink:href="#TimesNewRomanPSMT-4d" transform="translate(297.216797 0)"/>
      <use xlink:href="#TimesNewRomanPSMT-50" transform="translate(386.132812 0)"/>
      <use xlink:href="#TimesNewRomanPSMT-61" transform="translate(441.748047 0)"/>
      <use xlink:href="#TimesNewRomanPSMT-29" transform="translate(486.132812 0)"/>
     </g>
    </g>
   </g>
   <g id="line2d_14">
    <path d="M 134.45985 309.867225 
L 136.876117 324.571378 
L 139.292384 344.314333 
L 141.708651 310.26061 
L 144.124918 344.45772 
L 146.619128 344.364551 
L 149.035395 320.262715 
L 151.451662 344.484336 
L 153.867929 332.570399 
L 156.284196 344.57168 
L 158.778407 331.113699 
L 161.194673 344.662447 
L 163.61094 344.559315 
L 166.027207 318.624796 
L 168.499767 338.479363 
L 170.916034 293.785334 
L 173.3323 336.270036 
L 175.748567 336.221178 
L 178.164834 336.328214 
L 180.659045 336.183223 
L 183.075312 313.489016 
L 185.491579 336.195969 
L 187.907845 260.002574 
L 190.402056 336.251796 
L 192.818323 330.97772 
L 195.23459 336.297612 
L 197.650857 324.166542 
L 200.067123 332.153142 
L 202.539683 328.781371 
L 204.95595 268.234254 
L 207.372217 327.756803 
L 209.788484 280.03008 
L 212.20475 327.81352 
L 214.698961 307.918937 
L 217.115228 327.82867 
L 219.531495 327.597972 
L 221.947762 263.171524 
L 224.441973 327.645547 
L 226.858239 271.970446 
L 229.274506 327.7104 
L 231.690773 311.340745 
L 234.085389 324.548285 
L 236.5796 318.772364 
L 238.995866 276.897114 
L 241.412133 319.067326 
L 243.8284 276.686343 
L 246.322611 319.158172 
L 248.738878 281.95209 
L 251.155145 319.206749 
L 253.571411 318.908504 
L 255.987678 283.512115 
L 258.481889 318.942487 
L 260.898156 316.729021 
L 263.314423 319.026358 
L 265.73069 256.099593 
L 268.125305 304.699582 
L 270.619516 310.111235 
L 273.035783 295.559486 
L 275.45205 310.327741 
L 277.868317 293.284279 
L 280.362527 310.4336 
L 282.778794 279.274656 
L 285.195061 310.533651 
L 287.611328 309.894619 
L 290.027595 304.24062 
L 292.521806 310.214449 
L 294.938072 234.30041 
L 297.354339 310.300772 
L 299.770606 242.70666 
L 302.243166 299.511689 
L 304.659433 298.814387 
L 307.075699 301.99819 
L 309.491966 301.59258 
L 311.908233 267.119645 
L 314.402444 301.68349 
L 316.818711 234.943159 
L 319.234977 301.819432 
L 321.651244 276.324594 
L 324.145455 301.914973 
L 326.561722 301.496741 
L 328.977989 298.544303 
L 331.394256 301.560649 
L 333.788871 294.049952 
L 336.283082 292.282407 
L 338.699349 272.462513 
L 341.115616 293.329386 
L 343.531883 292.888554 
L 345.948149 271.843219 
L 348.44236 292.932857 
L 350.858627 222.663671 
L 353.274894 293.081901 
L 355.691161 250.154897 
L 358.185372 293.251702 
L 360.601638 289.46286 
L 363.017905 291.806711 
L 365.434172 292.828071 
L 367.828788 270.21064 
L 370.322999 284.792269 
L 372.739265 190.915544 
L 375.155532 284.632415 
L 377.571799 257.237599 
L 380.06601 276.40902 
L 382.482277 284.196677 
L 384.898544 253.413417 
L 387.31481 284.324264 
L 389.731077 268.548378 
L 392.225288 284.552273 
L 394.641555 271.554713 
L 397.057822 284.662272 
L 399.452437 260.224466 
L 401.868704 269.059212 
L 404.362915 275.678803 
L 406.779182 221.514039 
L 409.195449 275.904849 
L 411.611715 255.942364 
L 414.105926 276.081206 
L 416.522193 275.502844 
L 418.93846 228.212307 
L 421.354727 275.583968 
L 423.770994 275.885077 
L 426.265204 275.822569 
L 428.681471 263.943497 
L 431.097738 276.008665 
L 433.492354 257.547343 
L 435.986565 254.324578 
L 438.402831 266.669071 
L 440.819098 192.868265 
L 443.235365 267.151023 
L 445.651632 216.661834 
L 448.145843 267.406934 
L 450.56211 254.220067 
L 452.978376 265.747891 
L 455.394643 266.806482 
L 457.888854 202.735446 
L 460.305121 267.071047 
L 462.721388 220.197157 
L 465.137655 267.315619 
L 467.53227 248.968915 
L 470.026481 253.945524 
L 472.442748 258.33223 
L 474.859015 244.499755 
L 477.275282 258.38792 
L 479.691548 157.329085 
L 482.185759 258.692556 
L 484.602026 252.198909 
L 487.018293 258.870464 
L 489.43456 258.16304 
L 491.928771 207.013411 
L 494.345037 258.318559 
L 496.761304 196.62455 
L 499.15592 237.742225 
L 501.572187 245.800231 
L 504.066398 249.286177 
L 508.898931 249.95582 
L 511.315198 249.63085 
L 513.809409 227.710102 
L 516.225676 249.939115 
L 518.641942 249.743882 
L 521.058209 250.202481 
L 525.968687 228.666146 
L 528.384954 249.580112 
L 530.801221 242.801544 
L 533.195836 249.289944 
L 535.612103 174.89008 
L 538.106314 242.224455 
L 540.522581 234.700405 
L 542.938848 234.804164 
L 545.355114 240.910205 
L 547.849325 161.74794 
L 550.265592 241.164563 
L 552.681859 170.265886 
L 555.098126 241.455208 
L 557.514393 227.753872 
L 560.008603 241.700219 
L 562.42487 240.863928 
L 564.819486 183.999459 
L 567.235753 237.705829 
L 569.729964 158.754831 
L 572.14623 232.659716 
L 574.562497 221.522918 
L 576.978764 233.094259 
L 579.395031 232.236063 
L 581.889242 183.871441 
L 584.305509 232.39088 
L 586.721775 170.904359 
L 589.138042 232.732111 
L 591.554309 203.05474 
L 594.04852 233.056091 
L 596.464787 232.215464 
L 598.859402 219.855356 
L 601.275669 227.584853 
L 603.76988 190.24043 
L 606.186147 223.778701 
L 608.602414 152.699684 
L 611.01868 224.418471 
L 613.434947 212.928579 
L 615.929158 214.184728 
L 618.345425 223.640906 
L 620.761692 209.668405 
L 623.177959 223.931212 
L 625.672169 190.823477 
L 628.088436 224.34856 
L 630.504703 222.675382 
L 632.899319 214.147965 
L 635.315586 213.35733 
L 637.809796 158.933736 
L 640.226063 215.130514 
L 642.64233 168.755374 
L 645.058597 215.639098 
L 647.552808 184.584128 
L 649.969075 215.952295 
L 652.385341 214.946274 
L 654.801608 210.725646 
L 657.217875 215.151401 
L 659.712086 159.427226 
L 662.128353 215.583818 
L 664.522968 201.491852 
L 666.939235 213.106305 
L 669.355502 207.1415 
L 671.849713 200.315213 
L 674.26598 206.363186 
L 676.682247 112.621622 
L 679.098513 206.872077 
L 681.592724 200.698013 
L 684.008991 207.281032 
L 686.425258 200.630246 
L 688.841525 198.142413 
L 691.257791 206.376623 
L 693.752002 157.442585 
L 696.168269 206.778381 
L 698.562885 184.837359 
L 700.979152 196.051762 
L 703.473363 175.14624 
L 705.889629 192.009362 
L 708.305896 197.57937 
L 710.722163 191.509526 
L 713.13843 198.026246 
L 715.632641 171.018086 
L 718.048907 198.539428 
L 720.465174 197.421264 
L 722.881441 198.785145 
L 725.297708 197.663305 
L 727.791919 144.254939 
L 730.208186 197.961947 
L 732.602801 151.577503 
L 735.019068 191.950529 
L 737.513279 172.970395 
L 739.929546 190.05792 
L 742.345813 188.936789 
L 744.762079 158.1582 
L 747.178346 189.229247 
L 749.672557 112.993464 
L 752.088824 189.735927 
L 754.505091 151.657466 
L 756.921358 190.135035 
L 759.415568 189.024239 
L 761.831835 186.69999 
L 764.226451 161.762799 
L 766.642718 152.19519 
L 769.058985 178.681439 
L 771.553195 111.522786 
L 773.969462 181.306145 
L 776.385729 173.594875 
L 778.801996 163.012593 
L 781.296207 180.490041 
L 783.712474 165.670919 
L 786.12874 180.898127 
L 788.545007 82.806193 
L 790.961274 181.384045 
L 793.455485 180.460587 
L 795.871752 176.984666 
L 798.266367 178.762016 
L 800.682634 119.726468 
L 803.098901 171.97614 
L 805.593112 105.625172 
L 808.009379 172.463988 
L 810.425645 151.204885 
L 812.841912 173.086426 
L 815.336123 171.761888 
L 817.75239 172.967304 
L 820.168657 172.056981 
L 822.584924 83.690294 
L 825.00119 172.567629 
L 827.495401 171.985535 
L 829.890017 158.450858 
L 832.306284 156.797796 
L 834.722551 157.28673 
L 837.216761 164.571042 
L 839.633028 119.936383 
L 842.049295 163.78151 
L 844.465562 147.975607 
L 846.881829 164.340098 
L 849.37604 163.153921 
L 851.792306 133.882706 
L 854.208573 163.249012 
L 856.62484 103.962473 
L 859.041107 163.70919 
L 861.535318 89.730839 
L 863.929933 168.612249 
L 866.3462 155.907582 
L 868.762467 147.540194 
L 871.256678 155.415876 
L 873.672945 142.05015 
L 876.089212 155.157856 
L 878.505478 55.278938 
L 880.921745 155.59843 
L 883.415956 152.897878 
L 885.832223 155.951514 
L 888.24849 154.506258 
L 890.664756 129.265641 
L 893.158967 154.918443 
L 895.575234 98.784922 
L 897.96985 142.906532 
L 900.386117 121.319215 
L 902.802383 148.881365 
L 905.296594 146.565737 
L 907.712861 113.603836 
L 910.129128 146.16318 
L 912.545395 116.639832 
L 914.961662 146.68563 
L 917.455873 113.335095 
L 919.872139 147.280483 
L 922.288406 145.869941 
L 924.704673 115.280711 
L 927.198884 146.069623 
L 929.593499 141.974639 
L 932.009766 136.143556 
L 934.426033 65.239313 
L 936.8423 139.484439 
L 939.336511 125.357757 
L 941.752778 126.149732 
L 944.169044 137.228368 
L 946.585311 122.513338 
L 949.079522 137.930706 
L 951.495789 103.727192 
L 953.912056 138.502107 
L 956.328323 136.332354 
L 958.744589 136.714864 
L 961.2388 137.281476 
L 963.633416 126.688242 
L 966.049683 133.406758 
L 968.46595 122.105153 
L 970.96016 129.946535 
L 973.376427 119.884542 
L 975.792694 130.028531 
L 978.208961 128.701863 
L 980.625228 97.980012 
L 983.119439 128.99927 
L 985.535705 60.493958 
L 987.951972 129.643777 
L 990.368239 101.935178 
L 992.784506 130.153093 
L 995.257066 118.907275 
L 997.673332 102.159141 
L 1000.089599 123.70143 
L 1002.505866 69.476844 
L 1005.000077 121.438916 
L 1007.416344 66.360854 
L 1009.83261 121.654905 
L 1012.248877 119.920557 
L 1014.665144 92.873335 
L 1017.159355 120.13723 
L 1019.575622 116.675253 
L 1021.991889 120.732625 
L 1024.408155 37.029436 
L 1026.902366 121.474383 
L 1029.296982 100.428069 
L 1031.713249 104.582447 
L 1034.129516 113.050695 
L 1036.545782 29.68871 
L 1039.039993 112.648225 
L 1041.45626 104.663134 
L 1043.872527 112.684686 
L 1046.288794 71.917984 
L 1048.705061 113.061394 
L 1051.199271 111.38134 
L 1053.615538 72.482489 
L 1056.031805 111.810821 
L 1058.448072 84.140744 
L 1060.942283 112.657412 
L 1063.336898 97.097506 
L 1065.716062 106.889828 
L 1068.132329 64.541816 
L 1070.548595 98.243518 
L 1073.042806 111.499772 
L 1075.459073 31.997086 
L 1077.87534 98.044518 
L 1080.291607 101.840685 
L 1082.785818 98.941472 
L 1085.202085 92.366026 
L 1087.618351 94.966113 
L 1090.034618 102.843181 
L 1092.450885 42.287048 
L 1094.945096 102.355071 
L 1097.361363 23.656548 
L 1099.777629 101.82168 
L 1102.193896 85.533748 
L 1104.688107 80.714798 
L 1104.688107 80.714798 
" clip-path="url(#pe1113be48b)" style="fill: none; stroke: #d55e00; stroke-opacity: 0.38; stroke-width: 1.4; stroke-linecap: square"/>
   </g>
   <g id="line2d_15">
    <path d="M 134.45985 339.68587 
L 136.876117 288.628414 
L 139.292384 344.501874 
L 141.708651 326.029353 
L 144.124918 343.177968 
L 146.619128 345.393034 
L 149.035395 310.525203 
L 151.451662 344.234115 
L 153.867929 295.178385 
L 156.284196 344.301123 
L 158.778407 325.592257 
L 161.194673 345.325593 
L 163.61094 345.343942 
L 166.027207 324.148908 
L 168.499767 336.732878 
L 170.916034 294.019187 
L 173.3323 336.069834 
L 175.748567 313.559728 
L 178.164834 337.088644 
L 180.659045 336.499326 
L 183.075312 324.90428 
L 185.491579 335.922266 
L 187.907845 298.333302 
L 190.402056 336.09054 
L 192.818323 304.29868 
L 195.23459 336.944867 
L 197.650857 332.594615 
L 200.067123 329.640296 
L 202.539683 327.840177 
L 204.95595 288.069932 
L 207.372217 327.505686 
L 209.788484 280.790583 
L 212.20475 328.00154 
L 214.698961 318.623734 
L 217.115228 324.012062 
L 219.531495 328.704768 
L 221.947762 292.725002 
L 224.441973 327.472644 
L 226.858239 290.863197 
L 229.274506 327.520717 
L 231.690773 315.094269 
L 234.085389 319.235529 
L 236.5796 318.637764 
L 238.995866 291.420805 
L 241.412133 318.846241 
L 243.8284 276.486309 
L 246.322611 318.847414 
L 248.738878 298.991847 
L 251.155145 320.466926 
L 253.571411 319.573483 
L 255.987678 303.322273 
L 258.481889 318.659312 
L 260.898156 278.119492 
L 263.314423 318.824442 
L 265.73069 291.738074 
L 268.125305 309.503578 
L 270.619516 308.308503 
L 273.035783 299.433851 
L 275.45205 310.431785 
L 277.868317 275.397239 
L 280.362527 310.308307 
L 282.778794 281.012554 
L 285.195061 310.969074 
L 287.611328 306.229228 
L 290.027595 305.400241 
L 292.521806 310.71004 
L 294.938072 267.706293 
L 297.354339 310.161255 
L 299.770606 268.593939 
L 302.243166 302.408615 
L 304.659433 295.701133 
L 307.075699 299.577034 
L 309.491966 302.939615 
L 311.908233 270.988359 
L 314.402444 301.435691 
L 316.818711 254.716786 
L 319.234977 301.606567 
L 321.651244 281.041531 
L 324.145455 301.877275 
L 326.561722 302.857577 
L 328.977989 277.568151 
L 331.394256 301.187339 
L 333.788871 283.798219 
L 336.283082 292.767981 
L 338.699349 268.303396 
L 341.115616 294.678736 
L 343.531883 291.278622 
L 345.948149 276.230677 
L 348.44236 292.806488 
L 350.858627 241.795166 
L 353.274894 292.838791 
L 355.691161 252.946288 
L 358.185372 294.531391 
L 360.601638 290.078851 
L 363.017905 282.711908 
L 365.434172 293.023784 
L 367.828788 268.674032 
L 370.322999 284.5145 
L 372.739265 231.37883 
L 375.155532 285.139485 
L 377.571799 270.883763 
L 380.06601 277.603365 
L 382.482277 285.158597 
L 384.898544 240.486029 
L 387.31481 284.069666 
L 389.731077 228.086692 
L 392.225288 284.589269 
L 394.641555 267.325853 
L 397.057822 283.720817 
L 399.452437 279.511193 
L 401.868704 265.410208 
L 404.362915 275.569077 
L 406.779182 221.45302 
L 409.195449 275.558616 
L 411.611715 246.519045 
L 414.105926 277.026189 
L 416.522193 276.446748 
L 418.93846 252.114414 
L 421.354727 275.269676 
L 423.770994 236.299031 
L 426.265204 275.569935 
L 428.681471 251.831175 
L 431.097738 277.471489 
L 433.492354 264.01326 
L 435.986565 254.276581 
L 438.402831 266.565786 
L 440.819098 212.67325 
L 443.235365 266.880379 
L 445.651632 218.765811 
L 448.145843 268.442429 
L 450.56211 260.389249 
L 452.978376 259.211331 
L 455.394643 267.626244 
L 457.888854 222.375691 
L 460.305121 266.952759 
L 462.721388 221.099998 
L 465.137655 268.126781 
L 467.53227 250.798826 
L 470.026481 254.676677 
L 472.442748 259.763719 
L 474.859015 215.698469 
L 477.275282 258.082395 
L 479.691548 199.702266 
L 482.185759 258.543135 
L 484.602026 234.724522 
L 487.018293 259.238957 
L 489.43456 259.167398 
L 491.928771 233.671293 
L 494.345037 258.114097 
L 496.761304 217.390072 
L 499.15592 249.448583 
L 501.572187 235.843866 
L 504.066398 250.72607 
L 506.482664 249.446072 
L 508.898931 234.136733 
L 511.315198 249.535847 
L 513.809409 206.339873 
L 516.225676 249.740018 
L 518.641942 219.86707 
L 521.058209 251.018214 
L 523.474476 246.935509 
L 525.968687 240.488213 
L 528.384954 249.566785 
L 530.801221 203.80757 
L 533.195836 240.728165 
L 535.612103 209.324749 
L 538.106314 242.366956 
L 540.522581 231.208904 
L 542.938848 236.146276 
L 545.355114 241.944299 
L 547.849325 197.56072 
L 550.265592 240.969285 
L 552.681859 192.042048 
L 555.098126 241.40221 
L 557.514393 222.788557 
L 560.008603 239.717371 
L 562.42487 242.097555 
L 564.819486 224.213158 
L 567.235753 232.137715 
L 569.729964 192.238434 
L 572.14623 232.557007 
L 574.562497 212.829866 
L 576.978764 234.215906 
L 579.395031 232.854191 
L 581.889242 212.293879 
L 584.305509 232.146348 
L 586.721775 191.756357 
L 589.138042 232.512724 
L 591.554309 206.183535 
L 594.04852 234.236146 
L 596.464787 232.227563 
L 598.859402 220.346972 
L 601.275669 223.822625 
L 603.76988 172.195526 
L 606.186147 223.806547 
L 608.602414 175.480074 
L 611.01868 225.180724 
L 613.434947 214.753621 
L 615.929158 213.255755 
L 618.345425 224.188981 
L 620.761692 173.54535 
L 623.177959 223.749643 
L 625.672169 172.990349 
L 628.088436 224.635568 
L 630.504703 212.265228 
L 635.315586 215.683432 
L 637.809796 177.839992 
L 640.226063 215.090858 
L 642.64233 168.870926 
L 645.058597 215.37246 
L 647.552808 200.539553 
L 649.969075 216.209282 
L 652.385341 216.005859 
L 654.801608 199.233159 
L 657.217875 214.8154 
L 659.712086 159.301661 
L 662.128353 215.069297 
L 664.522968 202.731134 
L 666.939235 207.122039 
L 669.355502 205.333616 
L 671.849713 183.451769 
L 674.26598 206.337999 
L 676.682247 153.907729 
L 679.098513 206.648972 
L 681.592724 172.268548 
L 684.008991 208.360343 
L 686.425258 204.258727 
L 688.841525 196.229966 
L 691.257791 206.521234 
L 693.752002 157.831451 
L 696.168269 206.553681 
L 698.562885 186.586093 
L 700.979152 198.891336 
L 703.473363 190.026978 
L 705.889629 191.768766 
L 708.305896 198.571607 
L 710.722163 156.796326 
L 713.13843 197.854407 
L 715.632641 151.262975 
L 718.048907 198.460792 
L 720.465174 184.052345 
L 722.881441 198.58771 
L 725.297708 198.939496 
L 727.791919 163.498231 
L 730.208186 196.220886 
L 732.602801 158.641072 
L 735.019068 189.625725 
L 737.513279 165.028546 
L 739.929546 190.268616 
L 742.345813 189.58861 
L 744.762079 164.355418 
L 747.178346 189.013887 
L 749.672557 134.400152 
L 752.088824 189.439405 
L 754.505091 156.650628 
L 756.921358 191.371231 
L 759.415568 189.067348 
L 761.831835 171.947689 
L 764.226451 180.334598 
L 766.642718 151.751134 
L 769.058985 181.024449 
L 771.553195 133.589024 
L 773.969462 182.567356 
L 776.385729 174.005818 
L 778.801996 171.404827 
L 781.296207 180.766141 
L 783.712474 127.110657 
L 786.12874 180.71868 
L 788.545007 126.985414 
L 790.961274 181.61302 
L 793.455485 171.408962 
L 795.871752 174.130008 
L 798.266367 172.380051 
L 800.682634 143.747819 
L 803.098901 171.943555 
L 805.593112 127.447784 
L 808.009379 172.586953 
L 810.425645 155.590026 
L 812.841912 173.340264 
L 815.336123 172.959849 
L 817.75239 143.701969 
L 820.168657 171.797496 
L 822.584924 127.620293 
L 825.00119 172.24602 
L 827.495401 152.598012 
L 829.890017 164.066167 
L 832.306284 162.101118 
L 834.722551 146.11594 
L 837.216761 163.037318 
L 839.633028 119.619234 
L 842.049295 163.620134 
L 844.465562 133.446928 
L 846.881829 165.45287 
L 849.37604 162.923912 
L 851.792306 151.814181 
L 854.208573 163.155801 
L 856.62484 124.51571 
L 859.041107 163.630002 
L 861.535318 131.211356 
L 863.929933 155.73458 
L 866.3462 147.247222 
L 868.762467 148.29011 
L 871.256678 155.371692 
L 873.672945 105.223736 
L 876.089212 154.79841 
L 878.505478 99.976059 
L 880.921745 155.523389 
L 883.415956 141.109206 
L 885.832223 153.44837 
L 888.24849 155.694504 
L 890.664756 118.062522 
L 893.158967 154.717864 
L 895.575234 106.01563 
L 897.96985 147.188623 
L 900.386117 131.837456 
L 902.802383 147.523296 
L 905.296594 146.810343 
L 907.712861 118.515814 
L 910.129128 145.889396 
L 912.545395 94.145063 
L 914.961662 146.462895 
L 917.455873 118.795655 
L 919.872139 148.437459 
L 922.288406 145.48787 
L 924.704673 129.514685 
L 927.198884 145.764964 
L 929.593499 128.398112 
L 932.009766 137.739929 
L 934.426033 91.788282 
L 936.8423 139.28153 
L 941.752778 125.221084 
L 944.169044 137.849181 
L 946.585311 84.714842 
L 949.079522 137.700369 
L 951.495789 85.816364 
L 953.912056 138.939446 
L 956.328323 125.85269 
L 958.744589 134.745055 
L 961.2388 138.032561 
L 963.633416 115.980199 
L 966.049683 129.138272 
L 968.46595 80.963313 
L 970.96016 129.939835 
L 973.376427 115.209984 
L 975.792694 129.091215 
L 978.208961 129.955983 
L 980.625228 102.461801 
L 983.119439 128.760136 
L 985.535705 82.475767 
L 987.951972 129.402326 
L 990.368239 107.241604 
L 992.784506 131.113879 
L 995.257066 124.161739 
L 997.673332 109.462576 
L 1000.089599 120.460372 
L 1002.505866 70.771661 
L 1005.000077 120.611122 
L 1007.416344 87.819323 
L 1009.83261 122.781773 
L 1012.248877 118.704042 
L 1014.665144 108.96175 
L 1017.159355 119.963128 
L 1019.575622 74.043125 
L 1021.991889 120.602256 
L 1024.408155 84.279544 
L 1026.902366 122.720204 
L 1029.296982 105.877482 
L 1031.713249 104.64009 
L 1034.129516 112.548998 
L 1036.545782 68.498992 
L 1039.039993 111.853522 
L 1041.45626 64.419053 
L 1043.872527 112.887976 
L 1046.288794 98.031364 
L 1048.705061 111.48131 
L 1051.199271 112.3933 
L 1053.615538 75.074506 
L 1056.031805 111.587197 
L 1058.448072 62.001512 
L 1060.942283 113.362426 
L 1063.336898 97.677993 
L 1065.716062 83.391495 
L 1068.132329 98.216006 
L 1070.548595 89.19834 
L 1073.042806 102.854164 
L 1075.459073 84.968322 
L 1077.87534 102.275056 
L 1080.291607 82.249155 
L 1082.785818 100.639811 
L 1085.202085 96.598049 
L 1087.618351 81.230036 
L 1090.034618 100.977335 
L 1092.450885 66.927815 
L 1094.945096 101.871846 
L 1097.361363 44.120396 
L 1099.777629 103.367729 
L 1102.193896 88.495057 
L 1104.688107 84.378281 
L 1104.688107 84.378281 
" clip-path="url(#pe1113be48b)" style="fill: none; stroke: #d55e00; stroke-width: 3.4; stroke-linecap: square"/>
   </g>
   <g id="line2d_16">
    <path d="M 134.45985 334.743128 
L 136.876117 334.446253 
L 139.292384 352.464532 
L 141.708651 327.289321 
L 144.124918 345.243344 
L 146.619128 352.489641 
L 149.035395 332.403443 
L 151.451662 352.549533 
L 153.867929 338.568217 
L 156.284196 352.593205 
L 158.778407 337.833785 
L 161.194673 352.638589 
L 163.61094 348.910402 
L 166.027207 331.657354 
L 168.499767 344.155882 
L 170.916034 324.90855 
L 173.3323 347.181023 
L 175.748567 339.175275 
L 178.164834 344.688978 
L 180.659045 340.691425 
L 183.075312 331.514519 
L 185.491579 340.442252 
L 187.907845 313.654064 
L 190.402056 347.172888 
L 192.818323 337.261058 
L 195.23459 347.201019 
L 197.650857 334.955232 
L 200.067123 337.715672 
L 202.539683 335.412689 
L 204.95595 319.240274 
L 207.372217 338.262431 
L 209.788484 322.125181 
L 212.20475 342.323448 
L 214.698961 329.034572 
L 217.115228 334.209905 
L 219.531495 341.283794 
L 221.947762 317.940672 
L 224.441973 340.913749 
L 226.858239 320.066237 
L 229.274506 336.105033 
L 231.690773 329.845327 
L 234.085389 334.806848 
L 236.5796 331.151039 
L 238.995866 320.917862 
L 241.412133 330.668701 
L 243.8284 320.800798 
L 246.322611 334.07035 
L 248.738878 321.762628 
L 251.155145 330.206466 
L 253.571411 331.153437 
L 255.987678 322.198443 
L 258.481889 337.472606 
L 260.898156 328.767086 
L 263.314423 337.526933 
L 265.73069 316.55584 
L 270.619516 324.464663 
L 273.035783 322.244619 
L 275.45205 332.892461 
L 277.868317 321.801425 
L 280.362527 325.155074 
L 282.778794 319.359093 
L 285.195061 333.027095 
L 287.611328 324.3937 
L 290.027595 323.648257 
L 292.521806 330.845214 
L 294.938072 311.937013 
L 297.354339 331.129301 
L 299.770606 313.243263 
L 302.243166 319.421098 
L 304.659433 319.476231 
L 307.075699 320.37906 
L 309.491966 320.841495 
L 311.908233 315.181353 
L 314.402444 324.615237 
L 316.818711 310.475052 
L 319.234977 321.790927 
L 321.651244 316.285361 
L 324.145455 320.95621 
L 326.561722 323.237986 
L 328.977989 319.642141 
L 331.394256 327.059549 
L 333.788871 321.588167 
L 336.283082 320.594362 
L 338.699349 312.857258 
L 341.115616 319.34352 
L 343.531883 315.781884 
L 345.948149 313.000505 
L 348.44236 319.419734 
L 350.858627 306.761933 
L 353.274894 317.768975 
L 355.691161 310.078671 
L 358.185372 318.012682 
L 360.601638 314.900297 
L 363.017905 315.470998 
L 365.434172 320.570872 
L 367.828788 309.186032 
L 370.322999 313.831049 
L 372.739265 300.625942 
L 375.155532 314.261989 
L 377.571799 307.900143 
L 380.06601 310.32264 
L 382.482277 316.826145 
L 384.898544 307.71233 
L 387.31481 319.450042 
L 389.731077 309.273611 
L 392.225288 319.586186 
L 394.641555 309.474843 
L 397.057822 312.417066 
L 399.452437 296.655599 
L 401.868704 308.305182 
L 404.362915 306.770269 
L 406.779182 301.233997 
L 409.195449 315.165349 
L 411.611715 304.536247 
L 414.105926 307.267936 
L 416.522193 307.890898 
L 418.93846 302.024498 
L 421.354727 309.874611 
L 423.770994 306.876544 
L 426.265204 315.124433 
L 428.681471 305.331752 
L 431.097738 309.890576 
L 433.492354 295.635532 
L 435.986565 300.595009 
L 438.402831 303.156609 
L 440.819098 295.57807 
L 443.235365 303.99058 
L 445.651632 297.579439 
L 448.145843 304.445041 
L 450.56211 300.8639 
L 452.978376 302.281369 
L 455.394643 306.280411 
L 457.888854 296.469036 
L 460.305121 303.715723 
L 462.721388 297.906342 
L 465.137655 309.339198 
L 467.53227 299.232803 
L 470.026481 297.365719 
L 472.442748 300.80906 
L 474.859015 296.841125 
L 477.275282 302.837459 
L 479.691548 289.424083 
L 482.185759 303.87822 
L 484.602026 297.154631 
L 487.018293 299.091166 
L 489.43456 299.617104 
L 491.928771 293.779286 
L 494.345037 299.91243 
L 499.15592 285.369619 
L 501.572187 290.988103 
L 504.066398 294.471635 
L 506.482664 293.887329 
L 508.898931 293.69322 
L 511.315198 296.305771 
L 513.809409 291.837622 
L 516.225676 298.750249 
L 518.641942 293.387852 
L 521.058209 295.634498 
L 523.474476 292.459464 
L 525.968687 292.046605 
L 528.384954 293.79487 
L 530.801221 293.056974 
L 533.195836 296.960738 
L 535.612103 283.071 
L 538.106314 294.364168 
L 540.522581 288.411081 
L 542.938848 288.880032 
L 545.355114 289.544045 
L 547.849325 283.587026 
L 550.265592 291.676694 
L 552.681859 284.015419 
L 555.098126 295.400762 
L 557.514393 287.953202 
L 560.008603 289.564068 
L 562.42487 290.908725 
L 564.819486 285.209681 
L 567.235753 289.379866 
L 569.729964 279.306903 
L 572.14623 289.851419 
L 574.562497 283.830041 
L 576.978764 286.207936 
L 579.395031 284.662096 
L 581.889242 281.732828 
L 584.305509 286.1549 
L 586.721775 280.71433 
L 589.138042 285.13779 
L 591.554309 282.658289 
L 594.04852 285.732767 
L 596.464787 284.945042 
L 598.859402 281.898826 
L 601.275669 284.012433 
L 603.76988 279.024536 
L 606.186147 282.823785 
L 608.602414 275.870753 
L 611.01868 281.435813 
L 613.434947 279.469612 
L 615.929158 280.067205 
L 618.345425 283.654514 
L 620.761692 279.685458 
L 623.177959 284.5168 
L 625.672169 278.272059 
L 628.088436 284.500617 
L 630.504703 280.088695 
L 632.899319 277.547856 
L 637.809796 272.927483 
L 640.226063 276.32145 
L 642.64233 273.380991 
L 645.058597 281.003892 
L 647.552808 274.041771 
L 649.969075 276.568776 
L 652.385341 276.953262 
L 654.801608 276.040399 
L 657.217875 280.422955 
L 659.712086 272.82022 
L 662.128353 281.991687 
L 664.522968 277.945444 
L 666.939235 276.168978 
L 669.355502 272.234616 
L 671.849713 271.229448 
L 674.26598 274.125664 
L 676.682247 266.642827 
L 679.098513 273.752199 
L 681.592724 271.256012 
L 684.008991 273.514388 
L 686.425258 271.094338 
L 688.841525 271.574875 
L 691.257791 274.579879 
L 693.752002 269.148941 
L 696.168269 277.489035 
L 698.562885 264.582491 
L 700.979152 266.232785 
L 703.473363 265.809654 
L 705.889629 267.216692 
L 708.305896 269.320745 
L 710.722163 267.255865 
L 713.13843 270.256995 
L 715.632641 265.9398 
L 718.048907 270.760593 
L 720.465174 267.114726 
L 722.881441 267.978856 
L 725.297708 268.966284 
L 727.791919 264.822425 
L 730.208186 268.03906 
L 732.602801 257.168878 
L 735.019068 265.781075 
L 737.513279 262.752784 
L 739.929546 264.160053 
L 744.762079 261.851977 
L 747.178346 267.215165 
L 749.672557 259.339217 
L 752.088824 263.972639 
L 754.505091 261.014797 
L 756.921358 265.791459 
L 759.415568 263.313952 
L 761.831835 263.263682 
L 764.226451 250.836904 
L 766.642718 261.162305 
L 769.058985 261.087014 
L 771.553195 255.673444 
L 773.969462 259.445161 
L 776.385729 258.132266 
L 778.801996 258.244393 
L 781.296207 261.354294 
L 783.712474 258.244122 
L 786.12874 261.916797 
L 788.545007 254.028874 
L 790.961274 260.534632 
L 793.455485 258.433682 
L 795.871752 258.924458 
L 798.266367 259.825627 
L 800.682634 250.087565 
L 803.098901 258.201823 
L 805.593112 251.540121 
L 808.009379 254.684937 
L 810.425645 253.247372 
L 812.841912 255.615567 
L 815.336123 255.405589 
L 817.75239 254.786124 
L 820.168657 256.468927 
L 822.584924 250.487494 
L 825.00119 255.796261 
L 827.495401 254.270539 
L 829.890017 241.934791 
L 832.306284 245.625833 
L 834.722551 249.963167 
L 837.216761 250.831624 
L 839.633028 248.504125 
L 842.049295 253.986999 
L 844.465562 249.218526 
L 846.881829 251.975244 
L 849.37604 249.963333 
L 851.792306 249.207772 
L 854.208573 250.760656 
L 856.62484 247.736389 
L 859.041107 250.334817 
L 861.535318 246.779809 
L 863.929933 253.291513 
L 866.3462 248.699614 
L 868.762467 247.353977 
L 871.256678 248.182675 
L 873.672945 245.770011 
L 876.089212 248.447952 
L 878.505478 241.662891 
L 880.921745 247.389467 
L 883.415956 245.382711 
L 888.24849 247.24696 
L 890.664756 245.058196 
L 893.158967 246.538612 
L 895.575234 243.477227 
L 897.96985 238.498452 
L 900.386117 240.674329 
L 902.802383 243.258066 
L 905.296594 241.758151 
L 907.712861 240.736113 
L 910.129128 244.785469 
L 912.545395 240.395853 
L 914.961662 244.599668 
L 917.455873 239.9115 
L 919.872139 243.60117 
L 922.288406 241.381584 
L 924.704673 240.650893 
L 927.198884 243.411812 
L 929.593499 244.435676 
L 932.009766 235.844727 
L 934.426033 232.608352 
L 936.8423 238.583163 
L 939.336511 236.662793 
L 941.752778 237.102852 
L 944.169044 238.96164 
L 946.585311 236.883202 
L 949.079522 241.459633 
L 951.495789 235.762889 
L 953.912056 239.84755 
L 956.328323 236.746273 
L 958.744589 237.564234 
L 961.2388 237.909904 
L 963.633416 229.264249 
L 966.049683 237.507641 
L 968.46595 231.120242 
L 970.96016 235.960994 
L 973.376427 232.318467 
L 975.792694 233.447814 
L 978.208961 232.662516 
L 980.625228 232.077175 
L 983.119439 233.77043 
L 985.535705 230.388991 
L 987.951972 233.336506 
L 990.368239 231.578698 
L 992.784506 234.54667 
L 995.257066 237.161462 
L 997.673332 223.786211 
L 1000.089599 230.80223 
L 1002.505866 225.801864 
L 1005.000077 230.048346 
L 1007.416344 226.212901 
L 1009.83261 229.253541 
L 1012.248877 228.12093 
L 1014.665144 228.048818 
L 1017.159355 230.363778 
L 1019.575622 228.64797 
L 1021.991889 230.535031 
L 1024.408155 225.454102 
L 1026.902366 229.51794 
L 1029.296982 216.906671 
L 1031.713249 225.323777 
L 1034.129516 226.067722 
L 1036.545782 220.846795 
L 1039.039993 227.296804 
L 1041.45626 223.786464 
L 1043.872527 225.953415 
L 1046.288794 222.506119 
L 1048.705061 224.794826 
L 1051.199271 224.096964 
L 1053.615538 223.25448 
L 1056.031805 227.446265 
L 1058.448072 223.329912 
L 1060.942283 225.796891 
L 1063.336898 214.601109 
L 1065.716062 222.717255 
L 1068.132329 191.520432 
L 1070.548595 221.88338 
L 1073.042806 226.195629 
L 1075.459073 207.994676 
L 1077.87534 217.420317 
L 1080.291607 223.96319 
L 1082.785818 217.015316 
L 1085.202085 215.456792 
L 1087.618351 220.889445 
L 1090.034618 220.30055 
L 1092.450885 215.573654 
L 1094.945096 219.779156 
L 1097.361363 216.752078 
L 1099.777629 219.047754 
L 1102.193896 217.37147 
L 1104.688107 218.942128 
L 1104.688107 218.942128 
" clip-path="url(#pe1113be48b)" style="fill: none; stroke: #0072b2; stroke-opacity: 0.42; stroke-width: 1.4; stroke-linecap: square"/>
   </g>
   <g id="line2d_17">
    <path d="M 134.45985 344.2247 
L 136.876117 316.567497 
L 139.292384 352.763578 
L 141.708651 334.854425 
L 144.124918 346.61446 
L 146.619128 351.744977 
L 149.035395 327.161226 
L 151.451662 352.508293 
L 153.867929 320.125345 
L 156.284196 352.787503 
L 158.778407 334.660943 
L 161.194673 349.448794 
L 163.61094 350.14963 
L 166.027207 333.936415 
L 168.499767 341.66817 
L 170.916034 325.085111 
L 173.3323 347.252848 
L 175.748567 331.32434 
L 178.164834 343.694252 
L 180.659045 340.857688 
L 183.075312 335.057881 
L 185.491579 346.595339 
L 187.907845 326.506663 
L 190.402056 347.268335 
L 192.818323 328.161624 
L 195.23459 345.977442 
L 197.650857 338.921207 
L 200.067123 337.391827 
L 202.539683 335.219195 
L 204.95595 324.262863 
L 207.372217 342.523784 
L 209.788484 322.399793 
L 212.20475 341.533041 
L 214.698961 331.626479 
L 217.115228 333.980687 
L 219.531495 339.851363 
L 221.947762 325.174738 
L 224.441973 342.299215 
L 226.858239 324.8662 
L 229.274506 341.700411 
L 231.690773 330.573895 
L 234.085389 330.975359 
L 236.5796 330.95736 
L 238.995866 323.727455 
L 241.412133 337.093718 
L 243.8284 320.818714 
L 246.322611 336.632764 
L 248.738878 324.998816 
L 251.155145 331.771978 
L 253.571411 330.875441 
L 255.987678 326.000663 
L 258.481889 336.767001 
L 260.898156 321.117895 
L 263.314423 337.479738 
L 265.73069 323.452926 
L 268.125305 324.550754 
L 270.619516 324.381519 
L 273.035783 322.769312 
L 275.45205 329.071338 
L 277.868317 318.848726 
L 280.362527 331.51612 
L 282.778794 319.644519 
L 285.195061 328.476926 
L 287.611328 323.928539 
L 290.027595 324.139829 
L 292.521806 329.945542 
L 294.938072 317.509274 
L 297.354339 333.14253 
L 299.770606 315.66308 
L 302.243166 321.991259 
L 304.659433 318.908927 
L 307.075699 320.235635 
L 309.491966 322.511847 
L 311.908233 315.679144 
L 314.402444 327.313968 
L 316.818711 313.343604 
L 319.234977 326.297457 
L 321.651244 316.853103 
L 324.145455 321.226175 
L 326.561722 322.139968 
L 328.977989 316.54017 
L 331.394256 326.906331 
L 333.788871 312.086649 
L 336.283082 318.718611 
L 338.699349 312.314445 
L 341.115616 317.790802 
L 343.531883 315.797495 
L 345.948149 313.443237 
L 348.44236 321.031745 
L 350.858627 309.197209 
L 353.274894 322.697089 
L 355.691161 310.411006 
L 358.185372 318.732036 
L 360.601638 315.414073 
L 363.017905 314.320008 
L 365.434172 320.183531 
L 367.828788 309.167218 
L 370.322999 313.976249 
L 372.739265 305.175421 
L 375.155532 315.442571 
L 377.571799 309.2892 
L 380.06601 310.586019 
L 382.482277 314.484162 
L 384.898544 306.255181 
L 387.31481 317.992266 
L 389.731077 304.835516 
L 392.225288 316.315636 
L 394.641555 308.841651 
L 397.057822 311.995634 
L 399.452437 308.872571 
L 401.868704 306.117965 
L 404.362915 309.363757 
L 406.779182 301.251843 
L 409.195449 311.621687 
L 411.611715 303.501527 
L 414.105926 307.906339 
L 416.522193 307.621547 
L 418.93846 304.316086 
L 421.354727 311.447224 
L 423.770994 302.746634 
L 426.265204 311.000514 
L 428.681471 304.064206 
L 431.097738 308.619495 
L 433.492354 301.782867 
L 435.986565 300.992118 
L 438.402831 304.25317 
L 440.819098 297.398299 
L 443.235365 307.742592 
L 445.651632 297.767765 
L 448.145843 305.131773 
L 450.56211 301.588037 
L 452.978376 301.74766 
L 455.394643 304.676972 
L 457.888854 298.266173 
L 460.305121 307.538046 
L 462.721388 298.015053 
L 465.137655 306.265374 
L 467.53227 296.678947 
L 470.026481 297.618633 
L 472.442748 299.710437 
L 474.859015 294.42235 
L 477.275282 302.758187 
L 479.691548 292.984939 
L 482.185759 302.058843 
L 484.602026 295.607277 
L 487.018293 298.947481 
L 489.43456 298.947525 
L 491.928771 295.876785 
L 494.345037 301.501417 
L 496.761304 294.480646 
L 501.572187 292.185238 
L 504.066398 294.414909 
L 506.482664 293.697226 
L 508.898931 292.387351 
L 511.315198 296.175622 
L 513.809409 290.21853 
L 516.225676 297.099734 
L 518.641942 291.023738 
L 521.058209 295.375167 
L 523.474476 293.216315 
L 525.968687 292.890688 
L 528.384954 296.072547 
L 530.801221 289.99916 
L 533.195836 289.646903 
L 535.612103 286.97347 
L 538.106314 291.306746 
L 540.522581 288.171438 
L 542.938848 289.073802 
L 545.355114 290.728198 
L 547.849325 286.157378 
L 550.265592 293.180936 
L 552.681859 285.579012 
L 555.098126 292.630539 
L 557.514393 287.495846 
L 560.008603 289.588294 
L 562.42487 290.639694 
L 564.819486 287.137518 
L 567.235753 285.722687 
L 569.729964 282.533562 
L 572.14623 287.470053 
L 574.562497 283.239915 
L 576.978764 285.646684 
L 579.395031 285.077158 
L 581.889242 283.590072 
L 584.305509 287.338256 
L 586.721775 282.119909 
L 589.138042 287.847698 
L 591.554309 282.844011 
L 594.04852 286.03079 
L 596.464787 284.955153 
L 598.859402 280.001765 
L 601.275669 281.712469 
L 603.76988 277.466684 
L 606.186147 284.472837 
L 608.602414 277.263254 
L 611.01868 282.751651 
L 613.434947 279.622226 
L 615.929158 279.964088 
L 618.345425 282.623306 
L 620.761692 277.435211 
L 623.177959 284.493447 
L 625.672169 277.154711 
L 628.088436 283.227326 
L 630.504703 279.541237 
L 632.899319 276.21197 
L 635.315586 276.575291 
L 637.809796 274.053835 
L 640.226063 278.967228 
L 642.64233 273.392718 
L 645.058597 278.634268 
L 647.552808 274.911338 
L 649.969075 276.709745 
L 652.385341 276.780765 
L 654.801608 275.326616 
L 657.217875 279.204239 
L 659.712086 272.831161 
L 662.128353 279.44942 
L 664.522968 270.90725 
L 666.939235 272.353076 
L 669.355502 271.722632 
L 671.849713 270.643536 
L 674.26598 274.080394 
L 676.682247 268.918171 
L 679.098513 274.886108 
L 681.592724 269.633866 
L 684.008991 273.303646 
L 686.425258 271.513998 
L 688.841525 271.415503 
L 691.257791 273.662189 
L 693.752002 269.19122 
L 696.168269 275.030128 
L 698.562885 267.016331 
L 700.979152 268.505304 
L 703.473363 266.53394 
L 705.889629 267.341226 
L 708.305896 268.623492 
L 710.722163 265.4478 
L 713.13843 270.24819 
L 715.632641 264.90375 
L 718.048907 269.666452 
L 720.465174 266.365215 
L 722.881441 267.989425 
L 725.297708 268.169662 
L 727.791919 265.816622 
L 730.208186 269.620568 
L 732.602801 260.979395 
L 735.019068 265.354054 
L 737.513279 261.522567 
L 739.929546 263.922933 
L 742.345813 263.34785 
L 744.762079 262.076667 
L 747.178346 265.372193 
L 749.672557 260.432081 
L 752.088824 265.966221 
L 754.505091 261.208116 
L 756.921358 264.503373 
L 759.415568 263.211713 
L 761.831835 262.493162 
L 764.226451 257.533097 
L 766.642718 256.961327 
L 769.058985 261.172714 
L 771.553195 256.18114 
L 773.969462 260.55087 
L 776.385729 258.179279 
L 778.801996 258.652068 
L 781.296207 260.534187 
L 783.712474 256.422804 
L 786.12874 261.903401 
L 788.545007 256.14242 
L 790.961274 261.112814 
L 793.455485 257.994964 
L 795.871752 259.147467 
L 798.266367 255.846533 
L 800.682634 253.346624 
L 803.098901 256.396666 
L 805.593112 252.336783 
L 808.009379 256.366613 
L 810.425645 253.395055 
L 812.841912 255.136405 
L 815.336123 254.895977 
L 817.75239 253.44478 
L 820.168657 256.430413 
L 822.584924 252.491108 
L 825.00119 256.661807 
L 827.495401 253.256298 
L 832.306284 249.057574 
L 834.722551 250.004871 
L 837.216761 251.764787 
L 839.633028 248.433199 
L 842.049295 252.191276 
L 844.465562 248.6538 
L 846.881829 251.342551 
L 849.37604 249.921796 
L 851.792306 249.963325 
L 854.208573 251.312177 
L 856.62484 248.639897 
L 859.041107 252.265553 
L 861.535318 248.534267 
L 863.929933 246.570141 
L 866.3462 245.526615 
L 868.762467 245.893784 
L 871.256678 246.857226 
L 873.672945 244.01208 
L 876.089212 248.373955 
L 878.505478 243.505027 
L 880.921745 247.97269 
L 883.415956 244.856247 
L 885.832223 246.279939 
L 888.24849 246.488593 
L 890.664756 244.558985 
L 893.158967 248.313836 
L 895.575234 243.666227 
L 897.96985 242.379932 
L 900.386117 240.347938 
L 902.802383 242.372929 
L 905.296594 241.752681 
L 907.712861 240.674053 
L 910.129128 243.24083 
L 912.545395 239.532566 
L 914.961662 243.722588 
L 917.455873 240.083908 
L 919.872139 242.66794 
L 922.288406 241.359046 
L 924.704673 241.166907 
L 927.198884 243.328757 
L 929.593499 236.908915 
L 932.009766 238.197841 
L 934.426033 234.760374 
L 936.8423 238.790493 
L 939.336511 236.657836 
L 941.752778 237.046119 
L 944.169044 238.378128 
L 946.585311 235.412652 
L 949.079522 239.73252 
L 951.495789 235.058252 
L 953.912056 239.06922 
L 956.328323 236.322833 
L 958.744589 237.602406 
L 961.2388 238.05024 
L 963.633416 232.081572 
L 966.049683 233.074273 
L 968.46595 231.063533 
L 970.96016 234.366214 
L 973.376427 232.008231 
L 975.792694 233.440547 
L 978.208961 233.038433 
L 980.625228 232.243868 
L 983.119439 234.561323 
L 985.535705 231.205166 
L 987.951972 234.722198 
L 990.368239 231.719083 
L 992.784506 233.839635 
L 995.257066 228.822036 
L 997.673332 228.652782 
L 1000.089599 230.263868 
L 1002.505866 227.199566 
L 1005.000077 230.564594 
L 1007.416344 227.128443 
L 1009.83261 229.659117 
L 1012.248877 228.164778 
L 1014.665144 228.588066 
L 1017.159355 229.690533 
L 1019.575622 227.129618 
L 1021.991889 230.540612 
L 1024.408155 227.101227 
L 1026.902366 229.842498 
L 1029.296982 223.814869 
L 1031.713249 223.94281 
L 1034.129516 225.420043 
L 1036.545782 223.201068 
L 1039.039993 226.038412 
L 1041.45626 222.50951 
L 1043.872527 225.87493 
L 1046.288794 223.342905 
L 1048.705061 224.844244 
L 1051.199271 224.675769 
L 1053.615538 223.356555 
L 1056.031805 225.993706 
L 1058.448072 222.564958 
L 1060.942283 226.817373 
L 1065.716062 211.677494 
L 1068.132329 219.663967 
L 1070.548595 217.353483 
L 1073.042806 220.657855 
L 1075.459073 217.842352 
L 1077.87534 219.856197 
L 1080.291607 218.353411 
L 1082.785818 219.086791 
L 1085.202085 218.398189 
L 1087.618351 218.11653 
L 1090.034618 219.441389 
L 1092.450885 217.823601 
L 1094.945096 220.062976 
L 1097.361363 216.421249 
L 1099.777629 220.177112 
L 1102.193896 217.844025 
L 1104.688107 218.86642 
L 1104.688107 218.86642 
" clip-path="url(#pe1113be48b)" style="fill: none; stroke: #0072b2; stroke-width: 3.4; stroke-linecap: square"/>
   </g>
   <g id="patch_3">
    <path d="M 85.948437 369.244051 
L 85.948437 7.2 
" style="fill: none; stroke: #000000; stroke-width: 3; stroke-linejoin: miter; stroke-linecap: square"/>
   </g>
   <g id="patch_4">
    <path d="M 1153.19952 369.244051 
L 1153.19952 7.2 
" style="fill: none; stroke: #000000; stroke-width: 3; stroke-linejoin: miter; stroke-linecap: square"/>
   </g>
   <g id="patch_5">
    <path d="M 85.948437 369.244051 
L 1153.19952 369.244051 
" style="fill: none; stroke: #000000; stroke-width: 3; stroke-linejoin: miter; stroke-linecap: square"/>
   </g>
   <g id="patch_6">
    <path d="M 85.948437 7.2 
L 1153.19952 7.2 
" style="fill: none; stroke: #000000; stroke-width: 3; stroke-linejoin: miter; stroke-linecap: square"/>
   </g>
   <g id="legend_1">
    <g id="patch_7">
     <path d="M 99.948437 136.3125 
L 333.742188 136.3125 
Q 337.742188 136.3125 337.742188 132.3125 
L 337.742188 21.2 
Q 337.742188 17.2 333.742188 17.2 
L 99.948437 17.2 
Q 95.948437 17.2 95.948437 21.2 
L 95.948437 132.3125 
Q 95.948437 136.3125 99.948437 136.3125 
z
" style="fill: #ffffff; stroke: #000000; stroke-linejoin: miter"/>
    </g>
    <g id="line2d_18">
     <path d="M 103.948437 32.2 
L 123.948437 32.2 
L 143.948438 32.2 
" style="fill: none; stroke: #d55e00; stroke-opacity: 0.38; stroke-width: 1.4; stroke-linecap: square"/>
    </g>
    <g id="text_16">
     <!-- Max stress -->
     <g transform="translate(159.948438 39.2) scale(0.2 -0.2)">
      <defs>
       <path id="TimesNewRomanPS-BoldMT-4d" d="M 3050 1444 
L 4200 4238 
L 5925 4238 
L 5925 4122 
L 5788 4122 
Q 5600 4122 5488 4056 
Q 5409 4013 5363 3909 
Q 5328 3834 5328 3519 
L 5328 725 
Q 5328 400 5362 319 
Q 5397 238 5503 177 
Q 5609 116 5788 116 
L 5925 116 
L 5925 0 
L 3713 0 
L 3713 116 
L 3850 116 
Q 4038 116 4150 181 
Q 4228 225 4275 331 
Q 4309 406 4309 725 
L 4309 3866 
L 2684 0 
L 2609 0 
L 959 3838 
L 959 853 
Q 959 541 975 469 
Q 1016 313 1152 214 
Q 1288 116 1578 116 
L 1578 0 
L 128 0 
L 128 116 
L 172 116 
Q 313 113 434 161 
Q 556 209 618 290 
Q 681 372 716 519 
Q 722 553 722 838 
L 722 3519 
Q 722 3841 687 3920 
Q 653 4000 547 4061 
Q 441 4122 263 4122 
L 128 4122 
L 128 4238 
L 1859 4238 
L 3050 1444 
z
" transform="scale(0.015625)"/>
       <path id="TimesNewRomanPS-BoldMT-61" d="M 1828 431 
Q 1294 -41 869 -41 
Q 619 -41 453 123 
Q 288 288 288 534 
Q 288 869 575 1136 
Q 863 1403 1828 1847 
L 1828 2141 
Q 1828 2472 1792 2558 
Q 1756 2644 1656 2708 
Q 1556 2772 1431 2772 
Q 1228 2772 1097 2681 
Q 1016 2625 1016 2550 
Q 1016 2484 1103 2388 
Q 1222 2253 1222 2128 
Q 1222 1975 1108 1867 
Q 994 1759 809 1759 
Q 613 1759 480 1878 
Q 347 1997 347 2156 
Q 347 2381 525 2586 
Q 703 2791 1022 2900 
Q 1341 3009 1684 3009 
Q 2100 3009 2342 2832 
Q 2584 2656 2656 2450 
Q 2700 2319 2700 1847 
L 2700 713 
Q 2700 513 2715 461 
Q 2731 409 2762 384 
Q 2794 359 2834 359 
Q 2916 359 3000 475 
L 3094 400 
Q 2938 169 2770 64 
Q 2603 -41 2391 -41 
Q 2141 -41 2000 76 
Q 1859 194 1828 431 
z
M 1828 659 
L 1828 1638 
Q 1450 1416 1266 1163 
Q 1144 994 1144 822 
Q 1144 678 1247 569 
Q 1325 484 1466 484 
Q 1622 484 1828 659 
z
" transform="scale(0.015625)"/>
       <path id="TimesNewRomanPS-BoldMT-78" d="M 1944 1791 
L 2450 828 
Q 2713 325 2866 191 
Q 2950 119 3097 113 
L 3097 0 
L 1469 0 
L 1469 113 
Q 1659 128 1704 162 
Q 1750 197 1750 256 
Q 1750 344 1650 531 
L 1397 1006 
L 1181 691 
Q 1034 475 1016 434 
Q 991 375 991 328 
Q 991 256 1020 207 
Q 1050 159 1101 136 
Q 1153 113 1291 113 
L 1291 0 
L 147 0 
L 147 113 
Q 359 113 536 230 
Q 713 347 1050 844 
L 1291 1200 
L 788 2131 
Q 541 2588 419 2691 
Q 297 2794 147 2806 
L 147 2922 
L 1766 2922 
L 1766 2806 
L 1681 2803 
L 1519 2747 
Q 1494 2725 1494 2675 
Q 1494 2628 1509 2578 
Q 1519 2556 1597 2409 
L 1825 1984 
L 1944 2153 
Q 2194 2497 2194 2634 
Q 2194 2700 2139 2745 
Q 2084 2791 1944 2806 
L 1944 2922 
L 2978 2922 
L 2978 2806 
Q 2788 2800 2622 2689 
Q 2456 2578 2250 2259 
L 1944 1791 
z
" transform="scale(0.015625)"/>
       <path id="TimesNewRomanPS-BoldMT-20" transform="scale(0.015625)"/>
       <path id="TimesNewRomanPS-BoldMT-73" d="M 2063 3003 
L 2109 2006 
L 2003 2006 
Q 1813 2450 1608 2612 
Q 1403 2775 1200 2775 
Q 1072 2775 981 2689 
Q 891 2603 891 2491 
Q 891 2406 953 2328 
Q 1053 2200 1512 1889 
Q 1972 1578 2117 1361 
Q 2263 1144 2263 875 
Q 2263 631 2141 397 
Q 2019 163 1797 37 
Q 1575 -88 1306 -88 
Q 1097 -88 747 44 
Q 653 78 619 78 
Q 516 78 447 -78 
L 344 -78 
L 294 972 
L 400 972 
Q 541 559 786 353 
Q 1031 147 1250 147 
Q 1400 147 1495 239 
Q 1591 331 1591 463 
Q 1591 613 1497 722 
Q 1403 831 1078 1053 
Q 600 1384 459 1559 
Q 253 1816 253 2125 
Q 253 2463 486 2736 
Q 719 3009 1159 3009 
Q 1397 3009 1619 2894 
Q 1703 2847 1756 2847 
Q 1813 2847 1847 2870 
Q 1881 2894 1956 3003 
L 2063 3003 
z
" transform="scale(0.015625)"/>
       <path id="TimesNewRomanPS-BoldMT-74" d="M 1375 3991 
L 1375 2922 
L 2069 2922 
L 2069 2613 
L 1375 2613 
L 1375 809 
Q 1375 556 1398 482 
Q 1422 409 1481 364 
Q 1541 319 1591 319 
Q 1794 319 1975 628 
L 2069 559 
Q 1816 -41 1247 -41 
Q 969 -41 776 114 
Q 584 269 531 459 
Q 500 566 500 1034 
L 500 2613 
L 119 2613 
L 119 2722 
Q 513 3000 789 3306 
Q 1066 3613 1272 3991 
L 1375 3991 
z
" transform="scale(0.015625)"/>
       <path id="TimesNewRomanPS-BoldMT-72" d="M 1428 2922 
L 1428 2259 
Q 1719 2713 1937 2861 
Q 2156 3009 2359 3009 
Q 2534 3009 2639 2901 
Q 2744 2794 2744 2597 
Q 2744 2388 2642 2272 
Q 2541 2156 2397 2156 
Q 2231 2156 2109 2262 
Q 1988 2369 1966 2381 
Q 1934 2400 1894 2400 
Q 1803 2400 1722 2331 
Q 1594 2225 1528 2028 
Q 1428 1725 1428 1359 
L 1428 688 
L 1431 513 
Q 1431 334 1453 284 
Q 1491 200 1564 161 
Q 1638 122 1813 113 
L 1813 0 
L 234 0 
L 234 113 
Q 425 128 492 217 
Q 559 306 559 688 
L 559 2303 
Q 559 2553 534 2622 
Q 503 2709 443 2750 
Q 384 2791 234 2806 
L 234 2922 
L 1428 2922 
z
" transform="scale(0.015625)"/>
       <path id="TimesNewRomanPS-BoldMT-65" d="M 2691 1566 
L 1088 1566 
Q 1116 984 1397 647 
Q 1613 388 1916 388 
Q 2103 388 2256 492 
Q 2409 597 2584 869 
L 2691 800 
Q 2453 316 2165 114 
Q 1878 -88 1500 -88 
Q 850 -88 516 413 
Q 247 816 247 1413 
Q 247 2144 642 2576 
Q 1038 3009 1569 3009 
Q 2013 3009 2339 2645 
Q 2666 2281 2691 1566 
z
M 1922 1775 
Q 1922 2278 1867 2465 
Q 1813 2653 1697 2750 
Q 1631 2806 1522 2806 
Q 1359 2806 1256 2647 
Q 1072 2369 1072 1884 
L 1072 1775 
L 1922 1775 
z
" transform="scale(0.015625)"/>
      </defs>
      <use xlink:href="#TimesNewRomanPS-BoldMT-4d"/>
      <use xlink:href="#TimesNewRomanPS-BoldMT-61" transform="translate(94.384766 0)"/>
      <use xlink:href="#TimesNewRomanPS-BoldMT-78" transform="translate(144.384766 0)"/>
      <use xlink:href="#TimesNewRomanPS-BoldMT-20" transform="translate(194.384766 0)"/>
      <use xlink:href="#TimesNewRomanPS-BoldMT-73" transform="translate(219.384766 0)"/>
      <use xlink:href="#TimesNewRomanPS-BoldMT-74" transform="translate(258.300781 0)"/>
      <use xlink:href="#TimesNewRomanPS-BoldMT-72" transform="translate(291.601562 0)"/>
      <use xlink:href="#TimesNewRomanPS-BoldMT-65" transform="translate(334.236328 0)"/>
      <use xlink:href="#TimesNewRomanPS-BoldMT-73" transform="translate(378.621094 0)"/>
      <use xlink:href="#TimesNewRomanPS-BoldMT-73" transform="translate(417.537109 0)"/>
     </g>
    </g>
    <g id="line2d_19">
     <path d="M 103.948437 60.478125 
L 123.948437 60.478125 
L 143.948438 60.478125 
" style="fill: none; stroke: #d55e00; stroke-width: 3.4; stroke-linecap: square"/>
    </g>
    <g id="text_17">
     <!-- Max stress-filtered -->
     <g transform="translate(159.948438 67.478125) scale(0.2 -0.2)">
      <defs>
       <path id="TimesNewRomanPS-BoldMT-2d" d="M 1978 1147 
L 156 1147 
L 156 1794 
L 1978 1794 
L 1978 1147 
z
" transform="scale(0.015625)"/>
       <path id="TimesNewRomanPS-BoldMT-66" d="M 1497 2616 
L 1497 588 
Q 1497 294 1559 219 
Q 1659 103 1928 113 
L 1928 0 
L 206 0 
L 206 113 
Q 403 116 486 158 
Q 569 200 600 275 
Q 631 350 631 588 
L 631 2616 
L 206 2616 
L 206 2922 
L 631 2922 
L 631 3138 
L 628 3284 
Q 628 3734 958 4034 
Q 1288 4334 1850 4334 
Q 2234 4334 2420 4190 
Q 2606 4047 2606 3872 
Q 2606 3731 2490 3628 
Q 2375 3525 2184 3525 
Q 2022 3525 1926 3609 
Q 1831 3694 1831 3797 
Q 1831 3825 1850 3913 
Q 1863 3966 1863 4013 
Q 1863 4078 1825 4109 
Q 1775 4156 1703 4156 
Q 1613 4156 1552 4081 
Q 1491 4006 1491 3841 
L 1497 3294 
L 1497 2922 
L 1928 2922 
L 1928 2616 
L 1497 2616 
z
" transform="scale(0.015625)"/>
       <path id="TimesNewRomanPS-BoldMT-69" d="M 919 4338 
Q 1122 4338 1262 4195 
Q 1403 4053 1403 3853 
Q 1403 3653 1261 3512 
Q 1119 3372 919 3372 
Q 719 3372 578 3512 
Q 438 3653 438 3853 
Q 438 4053 578 4195 
Q 719 4338 919 4338 
z
M 1356 2922 
L 1356 606 
Q 1356 297 1428 211 
Q 1500 125 1709 113 
L 1709 0 
L 131 0 
L 131 113 
Q 325 119 419 225 
Q 481 297 481 606 
L 481 2313 
Q 481 2622 409 2708 
Q 338 2794 131 2806 
L 131 2922 
L 1356 2922 
z
" transform="scale(0.015625)"/>
       <path id="TimesNewRomanPS-BoldMT-6c" d="M 1359 4238 
L 1359 606 
Q 1359 297 1431 211 
Q 1503 125 1713 113 
L 1713 0 
L 134 0 
L 134 113 
Q 328 119 422 225 
Q 484 297 484 606 
L 484 3631 
Q 484 3938 412 4023 
Q 341 4109 134 4122 
L 134 4238 
L 1359 4238 
z
" transform="scale(0.015625)"/>
       <path id="TimesNewRomanPS-BoldMT-64" d="M 3056 4238 
L 3056 875 
Q 3056 534 3075 472 
Q 3100 369 3170 319 
Q 3241 269 3416 256 
L 3416 153 
L 2181 -88 
L 2181 375 
Q 1959 106 1786 9 
Q 1613 -88 1394 -88 
Q 834 -88 509 413 
Q 247 819 247 1409 
Q 247 1881 409 2254 
Q 572 2628 855 2818 
Q 1138 3009 1463 3009 
Q 1672 3009 1834 2928 
Q 1997 2847 2181 2644 
L 2181 3525 
Q 2181 3859 2153 3928 
Q 2116 4019 2041 4062 
Q 1966 4106 1759 4106 
L 1759 4238 
L 3056 4238 
z
M 2181 2256 
Q 1950 2700 1616 2700 
Q 1500 2700 1425 2638 
Q 1309 2541 1236 2297 
Q 1163 2053 1163 1550 
Q 1163 997 1244 731 
Q 1325 466 1466 347 
Q 1538 288 1663 288 
Q 1938 288 2181 719 
L 2181 2256 
z
" transform="scale(0.015625)"/>
      </defs>
      <use xlink:href="#TimesNewRomanPS-BoldMT-4d"/>
      <use xlink:href="#TimesNewRomanPS-BoldMT-61" transform="translate(94.384766 0)"/>
      <use xlink:href="#TimesNewRomanPS-BoldMT-78" transform="translate(144.384766 0)"/>
      <use xlink:href="#TimesNewRomanPS-BoldMT-20" transform="translate(194.384766 0)"/>
      <use xlink:href="#TimesNewRomanPS-BoldMT-73" transform="translate(219.384766 0)"/>
      <use xlink:href="#TimesNewRomanPS-BoldMT-74" transform="translate(258.300781 0)"/>
      <use xlink:href="#TimesNewRomanPS-BoldMT-72" transform="translate(291.601562 0)"/>
      <use xlink:href="#TimesNewRomanPS-BoldMT-65" transform="translate(334.236328 0)"/>
      <use xlink:href="#TimesNewRomanPS-BoldMT-73" transform="translate(378.621094 0)"/>
      <use xlink:href="#TimesNewRomanPS-BoldMT-73" transform="translate(417.537109 0)"/>
      <use xlink:href="#TimesNewRomanPS-BoldMT-2d" transform="translate(456.453125 0)"/>
      <use xlink:href="#TimesNewRomanPS-BoldMT-66" transform="translate(489.753906 0)"/>
      <use xlink:href="#TimesNewRomanPS-BoldMT-69" transform="translate(523.054688 0)"/>
      <use xlink:href="#TimesNewRomanPS-BoldMT-6c" transform="translate(550.837891 0)"/>
      <use xlink:href="#TimesNewRomanPS-BoldMT-74" transform="translate(578.621094 0)"/>
      <use xlink:href="#TimesNewRomanPS-BoldMT-65" transform="translate(611.921875 0)"/>
      <use xlink:href="#TimesNewRomanPS-BoldMT-72" transform="translate(656.306641 0)"/>
      <use xlink:href="#TimesNewRomanPS-BoldMT-65" transform="translate(698.941406 0)"/>
      <use xlink:href="#TimesNewRomanPS-BoldMT-64" transform="translate(743.326172 0)"/>
     </g>
    </g>
    <g id="line2d_20">
     <path d="M 103.948437 88.75625 
L 123.948437 88.75625 
L 143.948438 88.75625 
" style="fill: none; stroke: #0072b2; stroke-opacity: 0.42; stroke-width: 1.4; stroke-linecap: square"/>
    </g>
    <g id="text_18">
     <!-- Mean stress -->
     <g transform="translate(159.948438 95.75625) scale(0.2 -0.2)">
      <defs>
       <path id="TimesNewRomanPS-BoldMT-6e" d="M 1409 2922 
L 1409 2544 
Q 1634 2788 1840 2898 
Q 2047 3009 2284 3009 
Q 2569 3009 2756 2851 
Q 2944 2694 3006 2459 
Q 3056 2281 3056 1775 
L 3056 638 
Q 3056 300 3117 217 
Q 3178 134 3372 113 
L 3372 0 
L 1894 0 
L 1894 113 
Q 2059 134 2131 250 
Q 2181 328 2181 638 
L 2181 1938 
Q 2181 2297 2153 2390 
Q 2125 2484 2058 2536 
Q 1991 2588 1909 2588 
Q 1641 2588 1409 2203 
L 1409 638 
Q 1409 309 1470 221 
Q 1531 134 1697 113 
L 1697 0 
L 219 0 
L 219 113 
Q 403 131 481 231 
Q 534 300 534 638 
L 534 2288 
Q 534 2619 473 2700 
Q 413 2781 219 2806 
L 219 2922 
L 1409 2922 
z
" transform="scale(0.015625)"/>
      </defs>
      <use xlink:href="#TimesNewRomanPS-BoldMT-4d"/>
      <use xlink:href="#TimesNewRomanPS-BoldMT-65" transform="translate(94.384766 0)"/>
      <use xlink:href="#TimesNewRomanPS-BoldMT-61" transform="translate(138.769531 0)"/>
      <use xlink:href="#TimesNewRomanPS-BoldMT-6e" transform="translate(188.769531 0)"/>
      <use xlink:href="#TimesNewRomanPS-BoldMT-20" transform="translate(244.384766 0)"/>
      <use xlink:href="#TimesNewRomanPS-BoldMT-73" transform="translate(269.384766 0)"/>
      <use xlink:href="#TimesNewRomanPS-BoldMT-74" transform="translate(308.300781 0)"/>
      <use xlink:href="#TimesNewRomanPS-BoldMT-72" transform="translate(341.601562 0)"/>
      <use xlink:href="#TimesNewRomanPS-BoldMT-65" transform="translate(384.236328 0)"/>
      <use xlink:href="#TimesNewRomanPS-BoldMT-73" transform="translate(428.621094 0)"/>
      <use xlink:href="#TimesNewRomanPS-BoldMT-73" transform="translate(467.537109 0)"/>
     </g>
    </g>
    <g id="line2d_21">
     <path d="M 103.948437 117.034375 
L 123.948437 117.034375 
L 143.948438 117.034375 
" style="fill: none; stroke: #0072b2; stroke-width: 3.4; stroke-linecap: square"/>
    </g>
    <g id="text_19">
     <!-- Mean stress-filtered -->
     <g transform="translate(159.948438 124.034375) scale(0.2 -0.2)">
      <use xlink:href="#TimesNewRomanPS-BoldMT-4d"/>
      <use xlink:href="#TimesNewRomanPS-BoldMT-65" transform="translate(94.384766 0)"/>
      <use xlink:href="#TimesNewRomanPS-BoldMT-61" transform="translate(138.769531 0)"/>
      <use xlink:href="#TimesNewRomanPS-BoldMT-6e" transform="translate(188.769531 0)"/>
      <use xlink:href="#TimesNewRomanPS-BoldMT-20" transform="translate(244.384766 0)"/>
      <use xlink:href="#TimesNewRomanPS-BoldMT-73" transform="translate(269.384766 0)"/>
      <use xlink:href="#TimesNewRomanPS-BoldMT-74" transform="translate(308.300781 0)"/>
      <use xlink:href="#TimesNewRomanPS-BoldMT-72" transform="translate(341.601562 0)"/>
      <use xlink:href="#TimesNewRomanPS-BoldMT-65" transform="translate(384.236328 0)"/>
      <use xlink:href="#TimesNewRomanPS-BoldMT-73" transform="translate(428.621094 0)"/>
      <use xlink:href="#TimesNewRomanPS-BoldMT-73" transform="translate(467.537109 0)"/>
      <use xlink:href="#TimesNewRomanPS-BoldMT-2d" transform="translate(506.453125 0)"/>
      <use xlink:href="#TimesNewRomanPS-BoldMT-66" transform="translate(539.753906 0)"/>
      <use xlink:href="#TimesNewRomanPS-BoldMT-69" transform="translate(573.054688 0)"/>
      <use xlink:href="#TimesNewRomanPS-BoldMT-6c" transform="translate(600.837891 0)"/>
      <use xlink:href="#TimesNewRomanPS-BoldMT-74" transform="translate(628.621094 0)"/>
      <use xlink:href="#TimesNewRomanPS-BoldMT-65" transform="translate(661.921875 0)"/>
      <use xlink:href="#TimesNewRomanPS-BoldMT-72" transform="translate(706.306641 0)"/>
      <use xlink:href="#TimesNewRomanPS-BoldMT-65" transform="translate(748.941406 0)"/>
      <use xlink:href="#TimesNewRomanPS-BoldMT-64" transform="translate(793.326172 0)"/>
     </g>
    </g>
   </g>
  </g>
 </g>
 <defs>
  <clipPath id="pe1113be48b">
   <rect x="85.948437" y="7.2" width="1067.251082" height="362.044051"/>
  </clipPath>
 </defs>
</svg>
